<svg width="22" height="22" viewBox="0 0 22 22" fill="none" xmlns="http://www.w3.org/2000/svg">
<path d="M18.15 12.4666C18.1958 12.1458 18.2416 11.825 18.2416 11.4583C18.2416 11.0916 18.1958 10.7708 18.15 10.45L20.2125 8.98332C20.3958 8.84582 20.4875 8.57082 20.35 8.34165L18.3333 4.94998C18.1958 4.72082 17.9666 4.62915 17.7375 4.76665L15.4458 5.82082C14.8958 5.40832 14.3458 5.08748 13.7041 4.81248L13.475 2.29165C13.4291 2.06248 13.2458 1.87915 13.0166 1.87915H9.07496C8.8458 1.87915 8.61663 2.06248 8.61663 2.29165L8.38746 4.81248C7.7458 5.08748 7.14996 5.40832 6.6458 5.82082L4.35413 4.76665C4.12496 4.67498 3.84996 4.76665 3.7583 4.94998L1.78746 8.34165C1.64996 8.57082 1.74163 8.84582 1.92496 8.98332L3.98746 10.45C3.94163 10.7708 3.8958 11.0916 3.8958 11.4583C3.8958 11.825 3.94163 12.1458 3.98746 12.4666L1.8333 13.9333C1.64996 14.0708 1.5583 14.3458 1.6958 14.575L3.66663 17.9667C3.80413 18.1958 4.0333 18.2875 4.26246 18.15L6.55413 17.0958C7.10413 17.5083 7.65413 17.8291 8.2958 18.1041L8.52496 20.625C8.5708 20.8541 8.75413 21.0375 8.9833 21.0375H12.925C13.1541 21.0375 13.3833 20.8541 13.3833 20.625L13.6125 18.1041C14.2541 17.8291 14.85 17.5083 15.3541 17.0958L17.6458 18.15C17.875 18.2416 18.15 18.15 18.2416 17.9667L20.2125 14.575C20.35 14.3458 20.2583 14.0708 20.075 13.9333L18.15 12.4666ZM11 16.0416C8.47913 16.0416 6.41663 13.9791 6.41663 11.4583C6.41663 8.93748 8.47913 6.87498 11 6.87498C13.5208 6.87498 15.5833 8.93748 15.5833 11.4583C15.5833 13.9791 13.5208 16.0416 11 16.0416Z" fill="#607D8B"/>
<path d="M11 5.95831C7.975 5.95831 5.5 8.43331 5.5 11.4583C5.5 14.4833 7.975 16.9583 11 16.9583C14.025 16.9583 16.5 14.4833 16.5 11.4583C16.5 8.43331 14.025 5.95831 11 5.95831ZM11 13.75C9.71667 13.75 8.70833 12.7416 8.70833 11.4583C8.70833 10.175 9.71667 9.16665 11 9.16665C12.2833 9.16665 13.2917 10.175 13.2917 11.4583C13.2917 12.7416 12.2833 13.75 11 13.75Z" fill="#455A64"/>
</svg>
