<svg width="30" height="30" viewBox="0 0 30 30" fill="none" xmlns="http://www.w3.org/2000/svg">
<path d="M29.1425 12.1752H27.9808V12.1154H15V17.8846H23.1512C21.962 21.243 18.7666 23.6538 15 23.6538C10.2209 23.6538 6.34615 19.7791 6.34615 15C6.34615 10.2209 10.2209 6.34614 15 6.34614C17.206 6.34614 19.213 7.17835 20.7411 8.53772L24.8207 4.45815C22.2447 2.05743 18.799 0.576904 15 0.576904C7.03485 0.576904 0.57692 7.03484 0.57692 15C0.57692 22.9651 7.03485 29.4231 15 29.4231C22.9651 29.4231 29.4231 22.9651 29.4231 15C29.4231 14.0329 29.3236 13.0889 29.1425 12.1752Z" fill="#FFC107"/>
<path d="M2.23991 8.28676L6.97862 11.762C8.26083 8.58748 11.3661 6.34613 15 6.34613C17.206 6.34613 19.213 7.17835 20.7411 8.53772L24.8207 4.45815C22.2447 2.05743 18.7991 0.576904 15 0.576904C9.46011 0.576904 4.65578 3.70455 2.23991 8.28676Z" fill="#FF3D00"/>
<path d="M15 29.423C18.7255 29.423 22.1106 27.9973 24.6699 25.6788L20.206 21.9014C18.7093 23.0397 16.8804 23.6553 15 23.6538C11.2486 23.6538 8.06322 21.2617 6.86322 17.9235L2.15985 21.5473C4.54687 26.2182 9.39447 29.423 15 29.423Z" fill="#4CAF50"/>
<path d="M29.1425 12.1752H27.9808V12.1154H15V17.8846H23.1512C22.5824 19.483 21.5577 20.8797 20.2038 21.9021L20.206 21.9007L24.67 25.6781C24.3541 25.9651 29.4231 22.2115 29.4231 15C29.4231 14.0329 29.3236 13.0889 29.1425 12.1752Z" fill="#1976D2"/>
</svg>
