<svg width="22" height="13" viewBox="0 0 22 13" fill="none" xmlns="http://www.w3.org/2000/svg">
<g clip-path="url(#clip0)">
<path d="M8.73124 8.87825L14.6781 6.29839L8.73124 3.6969V8.87825V8.87825Z" fill="white"/>
<path opacity="0.12" d="M8.73124 3.6969L13.9476 6.61547L14.6781 6.29839L8.73124 3.6969V3.6969Z" fill="#420000"/>
<path d="M21.7681 2.79606C21.7681 2.79606 21.5533 1.52774 20.8918 0.965649C20.0586 0.230603 19.1222 0.230603 18.6841 0.187365C15.6174 0 11.0043 0 11.0043 0H10.9957C10.9957 0 6.38266 0 3.29871 0.187365C2.8692 0.230603 1.93282 0.230603 1.09098 0.965649C0.438109 1.52774 0.223352 2.79606 0.223352 2.79606C0.223352 2.79606 0 4.29498 0 5.78669V7.18472C0 8.67643 0.223352 10.1681 0.223352 10.1681C0.223352 10.1681 0.438109 11.4365 1.09957 11.9986C1.93282 12.7336 3.03239 12.712 3.52206 12.784C5.28309 12.9282 10.9957 12.9714 10.9957 12.9714C10.9957 12.9714 15.6173 12.9642 18.6927 12.7768C19.1222 12.7336 20.0586 12.7336 20.9004 11.9986C21.5619 11.4365 21.7766 10.1681 21.7766 10.1681C21.7766 10.1681 22 8.67643 22 7.18472V5.78669C21.9914 4.29498 21.7681 2.79606 21.7681 2.79606ZM8.7279 8.87821V3.69685L14.6724 6.29834L8.72781 8.87821H8.7279Z" fill="url(#paint0_linear)"/>
</g>
<defs>
<linearGradient id="paint0_linear" x1="10.9956" y1="0" x2="10.9956" y2="12.9753" gradientUnits="userSpaceOnUse">
<stop stop-color="#E52D27"/>
<stop offset="1" stop-color="#BF171D"/>
</linearGradient>
<clipPath id="clip0">
<rect width="22" height="12.9714" fill="white"/>
</clipPath>
</defs>
</svg>
