<svg width="22" height="22" viewBox="0 0 22 22" fill="none" xmlns="http://www.w3.org/2000/svg">
<path d="M9.17812 11.275H12.8219V13.5093H9.17812V11.275Z" fill="#E6B796"/>
<path d="M18.5625 21.3125L16.8438 13.75C16.775 13.475 16.4312 12.65 15.6406 12.5812C12.7188 12.375 12.8219 12.4437 12.8219 12.4437C12.8219 12.9937 11.9969 13.475 11 13.475C10.0031 13.475 9.17813 13.0281 9.17813 12.4437C9.17813 12.4437 9.28125 12.375 6.35938 12.5812C5.60313 12.65 5.225 13.4062 5.15625 13.75L3.4375 21.3125H5.5L6.53125 16.5L6.875 21.3125H15.125L15.4688 16.5L16.5 21.3125H18.5625Z" fill="#3E4347"/>
<path d="M11 20.9687C11 20.9687 13.8531 15.9844 13.5438 14.3C13.475 13.9562 13.0281 13.3375 12.7188 12.925C12.4781 13.4406 11.7906 13.7844 11 13.7844C10.2094 13.7844 9.52187 13.4062 9.28125 12.925C8.9375 13.3375 8.49062 13.9219 8.45625 14.2656C8.14687 16.0187 11 20.9687 11 20.9687Z" fill="white"/>
<path d="M11 20.9687L14.7812 16.2594L13.3719 14.1281L11 20.9687Z" fill="#646464"/>
<path d="M12.8219 12.0656C12.8219 12.0656 14.2313 13.2687 14.575 14.4375L13.8531 15.1937L12.7188 12.9594L12.8219 12.0656Z" fill="#646464"/>
<path d="M11 20.9687L7.21875 16.2594L8.62813 14.1281L11 20.9687Z" fill="#646464"/>
<path d="M9.17812 12.0656C9.17812 12.0656 7.76875 13.2687 7.425 14.4375L8.14687 15.1937L9.24687 12.925L9.17812 12.0656Z" fill="#646464"/>
<path d="M13.2 14.5062C13.3719 14.8844 11.55 14.1625 11.55 14.1625V13.3375C11.55 13.3375 13.3031 12.375 13.2 12.7531C13.0625 13.2344 13.0625 14.1969 13.2 14.5062Z" fill="#3E4347"/>
<path d="M12.4438 13.6812L11.6875 13.6469L12.2031 13.2344L11.55 13.5438V13.9562L12.2719 14.1969L11.7219 13.8531L12.4438 13.6812Z" fill="#646464"/>
<path d="M8.8 14.5062C8.62813 14.8844 10.45 14.1625 10.45 14.1625V13.3375C10.45 13.3375 8.69688 12.375 8.8 12.7531C8.9375 13.2344 8.9375 14.1969 8.8 14.5062Z" fill="#3E4347"/>
<path d="M9.55625 13.6812L10.3125 13.6469L9.79688 13.2344L10.45 13.5438V13.9562L9.72813 14.1969L10.2781 13.8531L9.55625 13.6812Z" fill="#646464"/>
<path d="M11.55 14.3C11.3438 14.4719 10.6563 14.4719 10.4844 14.3C10.2781 14.1281 10.2781 13.4406 10.4844 13.2687C10.6906 13.0969 11.3781 13.0969 11.55 13.2687C11.7219 13.4062 11.7219 14.0937 11.55 14.3Z" fill="#3E4347"/>
<path d="M11 15.0219L10.5875 15.4344L11 15.8125L11.4125 15.4344L11 15.0219Z" fill="#3E4347"/>
<path d="M11 16.775L10.5875 17.1532L11 17.5656L11.4125 17.1532L11 16.775Z" fill="#3E4347"/>
<path d="M11 18.5281L10.5875 18.9062L11 19.2843L11.4125 18.9062L11 18.5281Z" fill="#3E4347"/>
<path d="M5.6375 6.29064L6.1875 7.28752H15.8125L16.225 6.22189C16.225 2.37189 15.3313 0.721892 11.0344 0.687517C6.7375 0.653142 5.6375 2.37189 5.6375 6.29064Z" fill="#594640"/>
<path d="M15.8125 6.22188C15.7781 6.42813 15.7437 6.66875 15.675 6.77188C15.5719 6.97813 15.3312 7.11563 15.3312 7.11563C15.3312 7.11563 15.4 6.66875 15.3656 6.08438C15.125 2.50938 14.9187 4.22813 11 4.22813C7.08125 4.22813 6.875 2.50938 6.63437 6.08438C6.6 6.70313 6.66875 7.11563 6.66875 7.11563C6.66875 7.11563 6.42812 6.97813 6.325 6.77188C6.25625 6.66875 6.22188 6.42813 6.1875 6.22188C5.80937 6.11875 5.32812 6.22188 5.32812 7.2875C5.32812 7.94063 5.56875 8.49063 6.39375 8.55938C6.66875 10.7938 9.65938 12.2719 11 12.2719C12.3406 12.2719 15.3313 10.7938 15.6063 8.55938C16.4313 8.49063 16.6719 7.94063 16.6719 7.2875C16.6719 6.22188 16.1906 6.15313 15.8125 6.22188Z" fill="#FFE1BD"/>
<path d="M8.97187 8.04374C9.42751 8.04374 9.79687 7.67437 9.79687 7.21874C9.79687 6.7631 9.42751 6.39374 8.97187 6.39374C8.51624 6.39374 8.14687 6.7631 8.14687 7.21874C8.14687 7.67437 8.51624 8.04374 8.97187 8.04374Z" fill="#664E27"/>
<path d="M13.0281 8.04374C13.4838 8.04374 13.8531 7.67437 13.8531 7.21874C13.8531 6.7631 13.4838 6.39374 13.0281 6.39374C12.5725 6.39374 12.2031 6.7631 12.2031 7.21874C12.2031 7.67437 12.5725 8.04374 13.0281 8.04374Z" fill="#664E27"/>
<path d="M12.375 9.7625C12.375 10.3469 11.6875 10.6562 11 10.6562C10.3125 10.6562 9.625 10.3469 9.625 9.7625C9.625 9.7625 9.625 9.625 9.7625 9.625H12.2375C12.375 9.625 12.375 9.7625 12.375 9.7625Z" fill="#664E27"/>
</svg>
