<svg width="22" height="22" viewBox="0 0 22 22" fill="none" xmlns="http://www.w3.org/2000/svg">
<g clip-path="url(#clip0)">
<path d="M13.7397 14.972C13.8325 14.8723 13.9339 14.7812 14.0748 14.7778C14.3051 14.7726 14.6644 14.7348 14.9462 14.5681C15.0287 14.52 15.0992 14.4529 15.1508 14.3722C14.9531 14.3326 14.6816 14.2192 14.4976 13.8686C14.2175 13.3358 14.5406 12.8459 15.0803 12.3011C15.6853 11.6875 16.6925 9.582 15.6234 7.70513C15.4223 7.67591 12.5039 7.71888 11.7631 7.71888H8.61093V16.2628C12.0725 16.2628 12.7566 16.0411 13.7397 14.972Z" fill="url(#paint0_radial)"/>
<path d="M3.48212 14.972C3.38931 14.8723 3.2879 14.7812 3.14697 14.7778C2.91665 14.7726 2.55744 14.7348 2.27556 14.5681C2.19306 14.52 2.12259 14.4529 2.07103 14.3722C2.26869 14.3326 2.55228 14.2243 2.72415 13.8686C3.00431 13.2928 2.60556 12.7806 2.1415 12.3011C1.38525 11.5156 0.53103 9.582 1.60009 7.70513C1.80119 7.67591 4.71962 7.71888 5.4604 7.71888H8.61259V16.2628C5.14931 16.2628 4.46525 16.0411 3.48212 14.972Z" fill="url(#paint1_radial)"/>
<path d="M15.4842 8.11076C16.3539 9.94294 15.3536 11.6514 14.8895 12.1223C14.3705 12.6465 13.8909 13.279 14.2622 13.9872C14.3584 14.1711 14.4839 14.3189 14.6351 14.4272C14.4289 14.4994 14.202 14.5165 14.068 14.52C13.7947 14.5269 13.6194 14.7176 13.5437 14.8001C12.9473 15.4481 12.4987 15.7678 11.2509 15.9087C11.2509 15.9087 10.6047 16.2336 10.1578 16.3436V16.5C12.3406 16.4226 13.0419 16.1167 13.9356 15.1456C14.0044 15.07 14.0491 15.0373 14.0817 15.0356C14.3584 15.0287 14.7555 14.9806 15.0803 14.7898C15.1972 14.7211 15.2986 14.6248 15.3725 14.5097L15.577 14.1917L15.2023 14.1178C14.9944 14.0765 14.8397 13.9562 14.7314 13.75C14.5492 13.4045 14.6953 13.0608 15.2676 12.4798C15.9775 11.7614 16.9142 9.89138 15.9844 8.00763C15.9844 8.00763 15.8383 7.72404 15.84 7.71716L15.4842 8.11076Z" fill="#1F1A1A"/>
<path d="M1.9525 12.4781C2.42859 12.9697 2.68297 13.3547 2.48875 13.7568C2.39078 13.9579 2.23781 14.0765 2.02125 14.1178L1.64656 14.1917L1.85109 14.5097C1.925 14.6248 2.0264 14.7211 2.14328 14.7898C2.46984 14.9806 2.86687 15.0287 3.14187 15.0356C3.17453 15.0356 3.21922 15.07 3.28797 15.1456C4.17656 16.1115 4.87609 16.4209 7.03656 16.5V16.3367C6.66015 16.2336 5.97265 15.9104 5.97265 15.9104C4.72484 15.7695 4.27453 15.4498 3.67984 14.8018C3.60422 14.7193 3.4289 14.5286 3.15562 14.5217C3.02156 14.5183 2.79812 14.5011 2.59359 14.4306C2.75 14.3189 2.87547 14.1676 2.96656 13.982C3.35672 13.1793 2.69328 12.4936 2.3375 12.1258C1.66375 11.4297 1.04672 9.802 1.78578 8.15716L1.83562 8.04544L1.71187 8.02309L1.27703 7.987C0.419373 10.0547 1.19797 11.6978 1.9525 12.4781Z" fill="#1F1A1A"/>
<path d="M-0.0859375 23.3527V20.7299C-0.0859375 17.9403 4.27281 16.6856 8.59375 16.6805H8.61609C12.9181 16.6805 17.2734 18.0709 17.2734 20.7299V23.3527H-0.0859375Z" fill="url(#paint2_linear)"/>
<path d="M8.61609 16.9383C10.8333 16.9383 12.9852 17.3147 14.5217 17.9695C15.6595 18.4559 17.0156 19.3291 17.0156 20.7281V23.0931H0.171875V20.7281C0.171875 18.1156 4.40172 16.9417 8.59375 16.9366L8.61609 16.9383ZM8.61609 16.4227H8.59375C4.21266 16.4278 -0.34375 17.6739 -0.34375 20.7299V23.6105H17.5312V20.7299C17.5312 17.8492 13.0178 16.4227 8.61609 16.4227Z" fill="#404042"/>
<path d="M13.8515 14.96C13.8515 15.3278 13.463 15.6681 12.8065 15.9414C11.8474 16.3419 9.95333 21.5445 8.22942 21.5445C7.10708 21.5445 6.42989 16.4897 5.57739 16.3023C4.22302 16.005 3.33786 15.5152 3.33786 14.96C3.33786 14.0542 5.69083 13.3203 8.59552 13.3203C11.5002 13.3203 13.8515 14.0542 13.8515 14.96Z" fill="#212121"/>
<path d="M8.45107 18.7911C7.76357 18.7911 7.20326 18.2377 7.20326 17.5588V16.0153H9.98076V17.5588C9.98076 18.2394 9.42045 18.7911 8.73295 18.7911H8.45107Z" fill="#EDC391"/>
<path d="M9.81067 16.1872V17.5588C9.81067 18.1431 9.3277 18.6192 8.73474 18.6192H8.45114C7.85817 18.6192 7.3752 18.1431 7.3752 17.5588V16.1872H9.81067ZM10.1544 15.8434H7.03317V17.5588C7.03317 18.3339 7.66911 18.963 8.45286 18.963H8.73645C9.52021 18.963 10.1561 18.3339 10.1561 17.5588V15.8434H10.1544Z" fill="#D9AC77"/>
<path d="M6.77698 18.0469L7.39401 22.8594H9.86042L10.4104 18.0469H6.77698Z" fill="#BDBDBD"/>
<path d="M3.89641 12.3939C2.97516 12.3939 2.22751 11.5913 2.22751 10.6047C2.22751 9.61815 2.97688 8.81549 3.89641 8.81549H13.2894C14.2106 8.81549 14.9583 9.61815 14.9583 10.6047C14.9583 11.5913 14.2089 12.3939 13.2894 12.3939H3.89641Z" fill="#FFD29C"/>
<path d="M13.2911 8.98737C14.1161 8.98737 14.7881 9.71268 14.7881 10.6047C14.7881 11.4967 14.1161 12.2221 13.2911 12.2221H3.89641C3.07141 12.2221 2.39938 11.4967 2.39938 10.6047C2.39938 9.71268 3.07141 8.98737 3.89641 8.98737H13.2911ZM13.2911 8.64362H3.89641C2.88407 8.64362 2.05563 9.52705 2.05563 10.6047C2.05563 11.6824 2.88407 12.5658 3.89641 12.5658H13.2894C14.3017 12.5658 15.1302 11.6824 15.1302 10.6047C15.1302 9.52705 14.3034 8.64362 13.2911 8.64362Z" fill="#EDBD82"/>
<path d="M8.59368 16.3505C5.90212 16.3505 3.0043 14.2639 3.0043 9.68002C3.0043 7.5522 3.61618 5.59111 4.72649 4.15767C5.76462 2.81705 7.17571 2.04877 8.59368 2.04877C10.0116 2.04877 11.421 2.81705 12.4609 4.15767C13.5712 5.59111 14.1831 7.5522 14.1831 9.68002C14.1831 11.758 13.5798 13.4939 12.4402 14.7005C11.4331 15.7644 10.0666 16.3505 8.59368 16.3505Z" fill="url(#paint3_linear)"/>
<path d="M8.59368 2.22064C9.95837 2.22064 11.3179 2.96486 12.3251 4.26252C13.4131 5.66502 14.0112 7.5883 14.0112 9.68002C14.0112 11.7133 13.4251 13.4097 12.3148 14.5819C11.3402 15.6114 10.0185 16.1786 8.59368 16.1786C7.16883 16.1786 5.84712 15.6114 4.87258 14.5819C3.76227 13.4097 3.17618 11.7133 3.17618 9.68002C3.17618 7.59002 3.77602 5.66674 4.86227 4.26252C5.86946 2.96486 7.22899 2.22064 8.59368 2.22064ZM8.59368 1.87689C5.60305 1.87689 2.83243 5.07549 2.83243 9.6783C2.83243 14.257 5.68727 16.5206 8.59368 16.5206C11.5001 16.5206 14.3549 14.257 14.3549 9.6783C14.3549 5.07549 11.5843 1.87689 8.59368 1.87689Z" fill="#EDBD82"/>
<path d="M7.17411 8.56281C7.01427 8.35141 6.64645 8.04547 5.93145 8.04547C5.21645 8.04547 4.84692 8.35313 4.6888 8.56281C4.61833 8.65563 4.63552 8.76391 4.68536 8.82922C4.73005 8.88938 4.86411 8.94609 5.01192 8.89625C5.15973 8.84641 5.44848 8.69688 5.93145 8.69344C6.41442 8.69688 6.70317 8.84641 6.85098 8.89625C6.9988 8.94609 7.13286 8.89109 7.17755 8.82922C7.22739 8.76391 7.24458 8.65563 7.17411 8.56281Z" fill="url(#paint4_radial)"/>
<path d="M12.973 8.65563C12.7823 8.40297 12.3405 8.03516 11.4829 8.03516C10.6252 8.03516 10.1835 8.40297 9.99272 8.65563C9.9085 8.76734 9.92913 8.89625 9.98757 8.97531C10.0426 9.0475 10.2024 9.11453 10.3794 9.05438C10.5565 8.99422 10.9037 8.81547 11.4829 8.81031C12.0621 8.81375 12.4093 8.99422 12.5863 9.05438C12.7634 9.11453 12.9232 9.0475 12.9782 8.97531C13.0349 8.89625 13.0573 8.76734 12.973 8.65563Z" fill="url(#paint5_radial)"/>
<path d="M5.87627 10.9605C6.34425 10.9605 6.72362 10.5681 6.72362 10.084C6.72362 9.59985 6.34425 9.2074 5.87627 9.2074C5.4083 9.2074 5.02893 9.59985 5.02893 10.084C5.02893 10.5681 5.4083 10.9605 5.87627 10.9605Z" fill="#312D2D"/>
<path d="M9.25709 11.6721C9.23818 11.6652 9.221 11.66 9.20209 11.6583H7.98693C7.96803 11.66 7.94912 11.6652 7.93193 11.6721C7.82193 11.7168 7.76178 11.8302 7.81334 11.9522C7.8649 12.0743 8.10725 12.4146 8.59537 12.4146C9.0835 12.4146 9.32584 12.0725 9.3774 11.9522C9.42725 11.8319 9.36709 11.7168 9.25709 11.6721Z" fill="#DBA689"/>
<path d="M10.0598 13.0625C9.51155 13.3873 7.71717 13.3873 7.17061 13.0625C6.85608 12.8751 6.53467 13.1622 6.6653 13.4475C6.7942 13.7276 7.77389 14.379 8.61951 14.379C9.46514 14.379 10.4328 13.7276 10.5617 13.4475C10.6906 13.1605 10.3744 12.8751 10.0598 13.0625Z" fill="#424242"/>
<path d="M6.57414 1.83049C4.46524 2.57815 4.25555 1.25471 4.25555 1.25471C3.11086 1.82534 3.86368 3.05081 3.86368 3.05081C3.86368 3.05081 2.70352 2.96487 2.2068 3.96862C1.68774 5.01877 2.14493 5.82143 2.14493 5.82143C2.14493 5.82143 1.02774 6.53127 1.46602 7.82034C1.75649 8.67627 2.62618 9.02003 2.62618 9.02003C2.51961 10.866 3.10227 11.7614 3.10227 11.7614C3.10227 11.7614 3.82586 8.59034 3.75711 8.10565C3.75711 8.10565 5.09086 7.84096 6.60508 6.97471C7.62774 6.38862 8.32727 5.70112 9.47711 5.44331C11.2268 5.04971 11.617 6.31643 11.617 6.31643C11.617 6.31643 13.236 6.00534 13.7241 8.25346C13.9252 9.17815 14.0112 10.7233 14.1212 11.6635C14.1109 11.581 14.7227 10.5635 14.8293 9.53221C14.8688 9.14893 15.4498 8.21393 15.6251 7.51784C16.0049 6.00534 15.5065 4.81252 15.271 4.45674C14.8413 3.80534 13.8118 2.90987 13.0418 3.04049C13.0813 2.21549 12.4316 1.45065 11.6496 1.18768C9.50977 0.469243 7.20321 1.60706 6.57414 1.83049Z" fill="url(#paint6_radial)"/>
<path d="M1.22202 7.90281C1.38874 8.39265 1.65859 8.5164 1.65859 8.5164L1.84765 8.03687L1.79265 7.92859C1.75656 7.8564 1.73077 7.79625 1.71015 7.73781C1.34406 6.66187 2.24468 6.06547 2.28249 6.03969L2.48531 5.90906L2.36843 5.69765C2.35296 5.66844 1.98859 4.98953 2.43718 4.08547C2.83765 3.27594 3.76921 3.44437 3.80874 3.45125L4.31578 3.55265L4.09062 3.08687C4.07343 3.04906 3.71421 2.28422 4.14734 1.71015C4.24187 1.88375 4.39312 2.07969 4.63546 2.22578C5.12531 2.52312 5.80421 2.5214 6.65499 2.22062C6.79078 2.1725 6.94374 2.09 7.13624 1.98344C7.91484 1.5589 9.21765 0.847342 11.2819 1.50047C12.0278 1.73765 12.815 2.38906 12.7841 3.02844L12.7686 3.34984L13.0848 3.29656C13.7036 3.19344 14.6489 3.98578 15.0562 4.60109C15.2659 4.91734 15.7403 6.2339 15.3862 7.645C15.3673 7.72234 15.3192 7.82203 15.3192 7.82203C15.3192 7.82203 15.6148 8.39093 15.6784 8.60578L15.8847 7.77047C16.2697 6.23562 15.7884 4.7764 15.4859 4.3175C15.0666 3.68156 14.1264 2.8325 13.2825 2.77578C13.1467 1.96453 12.2787 1.27703 11.4383 1.01062C9.16437 0.288749 7.68453 1.09656 6.88874 1.5314C6.72374 1.6225 6.58109 1.69984 6.48312 1.73422C5.80078 1.97656 5.25765 1.99547 4.91046 1.78922C4.57187 1.58812 4.51171 1.23406 4.50999 1.22031L4.45156 0.800936L4.10609 1.04328C3.37734 1.55719 3.34984 2.35469 3.48734 2.91328C2.98374 2.9339 2.32374 3.14703 1.97484 3.85344C1.5589 4.69562 1.70671 5.39859 1.82703 5.73547C1.3939 6.105 0.873119 6.87844 1.22202 7.90281Z" fill="#1F1A1A"/>
<path d="M11.3094 11.3884C11.8789 11.3884 12.3406 10.9105 12.3406 10.3211C12.3406 9.73159 11.8789 9.25372 11.3094 9.25372C10.7398 9.25372 10.2781 9.73159 10.2781 10.3211C10.2781 10.9105 10.7398 11.3884 11.3094 11.3884Z" fill="#312D2D"/>
<path d="M16.048 23.5898C16.048 23.5898 16.048 22.9229 16.3918 21.462C16.6822 20.2314 16.8283 19.6951 16.8283 19.6951C16.9143 19.1245 17.4729 18.7533 18.0332 18.8925L19.7399 19.3187L20.4704 23.4437L16.048 23.5898Z" fill="#616161"/>
<path d="M19.7399 19.3204H19.1968C19.1951 19.494 19.2604 19.6625 19.2363 19.8361H19.3068L19.8551 22.9298H16.9693C16.7527 22.99 16.5362 23.0467 16.3196 23.1068L16.2595 23.4454H20.4704L19.7399 19.3204Z" fill="#404042"/>
<path d="M18.3063 21.0392C19.136 21.0392 19.8085 20.4236 19.8085 19.6642C19.8085 18.9049 19.136 18.2892 18.3063 18.2892C17.4767 18.2892 16.8041 18.9049 16.8041 19.6642C16.8041 20.4236 17.4767 21.0392 18.3063 21.0392Z" fill="#212121"/>
<path d="M1.05706 17.9644C0.967685 18.071 0.940185 18.2136 1.02956 18.3202L1.56409 18.963C1.65347 19.0696 1.84768 19.2139 1.96284 19.1349C2.49909 18.7619 3.78815 17.8956 4.75581 18.2102L4.10269 16.8816C4.10269 16.8833 2.15534 16.6581 1.05706 17.9644Z" fill="#808080" stroke="#575757" stroke-width="0.546875" stroke-miterlimit="10"/>
<path d="M1.9404 18.5883C2.19575 18.5883 2.40275 18.3813 2.40275 18.126C2.40275 17.8706 2.19575 17.6636 1.9404 17.6636C1.68506 17.6636 1.47806 17.8706 1.47806 18.126C1.47806 18.3813 1.68506 18.5883 1.9404 18.5883Z" fill="#757575" stroke="#9E9E9E" stroke-width="0.273438" stroke-miterlimit="10"/>
<path d="M2.10039 18.2428C2.1526 18.2428 2.19492 18.2005 2.19492 18.1483C2.19492 18.0961 2.1526 18.0538 2.10039 18.0538C2.04818 18.0538 2.00586 18.0961 2.00586 18.1483C2.00586 18.2005 2.04818 18.2428 2.10039 18.2428Z" fill="#424242"/>
<path d="M1.78046 18.1964C1.83267 18.1964 1.87499 18.1541 1.87499 18.1019C1.87499 18.0497 1.83267 18.0074 1.78046 18.0074C1.72825 18.0074 1.68593 18.0497 1.68593 18.1019C1.68593 18.1541 1.72825 18.1964 1.78046 18.1964Z" fill="#424242"/>
<path d="M15.7919 17.9644C15.8813 18.071 15.9088 18.2136 15.8194 18.3202L15.2849 18.963C15.1955 19.0696 15.0013 19.2139 14.8861 19.1349C14.3499 18.7619 13.0608 17.8956 12.0932 18.2102L12.7463 16.8816C12.7463 16.8833 14.6919 16.6581 15.7919 17.9644Z" fill="#808080" stroke="#575757" stroke-width="0.546875" stroke-miterlimit="10"/>
<path d="M14.9068 18.5883C15.1621 18.5883 15.3691 18.3813 15.3691 18.126C15.3691 17.8706 15.1621 17.6636 14.9068 17.6636C14.6514 17.6636 14.4444 17.8706 14.4444 18.126C14.4444 18.3813 14.6514 18.5883 14.9068 18.5883Z" fill="#757575" stroke="#9E9E9E" stroke-width="0.273438" stroke-miterlimit="10"/>
<path d="M14.7469 18.2428C14.7991 18.2428 14.8415 18.2005 14.8415 18.1483C14.8415 18.0961 14.7991 18.0538 14.7469 18.0538C14.6947 18.0538 14.6524 18.0961 14.6524 18.1483C14.6524 18.2005 14.6947 18.2428 14.7469 18.2428Z" fill="#424242"/>
<path d="M15.0684 18.1964C15.1206 18.1964 15.1629 18.1541 15.1629 18.1019C15.1629 18.0497 15.1206 18.0074 15.0684 18.0074C15.0162 18.0074 14.9739 18.0497 14.9739 18.1019C14.9739 18.1541 15.0162 18.1964 15.0684 18.1964Z" fill="#424242"/>
<path d="M6.34039 23.4902L3.65227 15.4688C4.25383 15.8039 5.45008 16.3556 6.7907 16.3556C6.92649 16.3556 7.06227 16.3505 7.19461 16.3384H7.19633C7.3218 16.3384 7.43008 16.4467 7.45758 16.5859L8.26711 23.4902H6.34039Z" fill="url(#paint7_linear)"/>
<path d="M3.95151 15.8177C4.62698 16.146 5.65823 16.5292 6.79089 16.5292C6.93182 16.5292 7.07276 16.5224 7.21026 16.5103C7.22401 16.5103 7.2687 16.5464 7.28589 16.61L8.07307 23.3183H6.46604L3.95151 15.8177ZM3.34135 15.0786L6.21682 23.662H8.45807L7.62448 16.5516C7.58151 16.3385 7.41135 16.1649 7.21026 16.1649C7.19995 16.1649 7.18964 16.1649 7.17932 16.1666C7.0487 16.1786 6.91979 16.1838 6.79089 16.1838C4.94151 16.1838 3.34135 15.0786 3.34135 15.0786Z" fill="#575757"/>
<path d="M8.90318 23.4902L9.73334 16.5722C9.75912 16.445 9.86396 16.3367 9.97053 16.3367C9.9774 16.3367 9.98256 16.3367 9.98943 16.3385C10.1355 16.3557 10.2885 16.3642 10.4432 16.3642C11.7151 16.3642 12.9268 15.8005 13.5369 15.4636L10.8488 23.4902H8.90318Z" fill="url(#paint8_linear)"/>
<path d="M13.2378 15.8108L10.7233 23.3183H9.09735L9.90173 16.61C9.91719 16.5481 9.95844 16.5121 9.96876 16.5086C10.1217 16.5258 10.2816 16.5344 10.4431 16.5344C11.5225 16.5361 12.5572 16.1425 13.2378 15.8108ZM13.8463 15.0786C13.8463 15.0786 12.1842 16.1924 10.4431 16.1924C10.2988 16.1924 10.1527 16.1855 10.0083 16.1683C9.99626 16.1666 9.98251 16.1666 9.97048 16.1666C9.77282 16.1666 9.60438 16.3436 9.56313 16.5533L8.71063 23.6638H10.9725L13.8463 15.0786Z" fill="#575757"/>
<path d="M14.3498 4.44125C13.5764 4.25735 12.4764 4.09235 11.4228 3.99782C10.5497 3.91875 9.58719 4.08375 8.59375 4.08375C7.60031 4.08375 6.63781 3.91875 5.76469 3.9961C4.71109 4.09063 3.41344 4.44641 2.64 4.63032C1.28219 4.95516 0.6875 5.29032 0.6875 5.77672C0.6875 6.26313 1.39391 6.48313 2.75344 6.80625C3.52688 6.99016 4.11984 7.42329 5.49312 7.58657C6.36281 7.69141 7.82547 7.38032 8.81719 7.38032C9.81063 7.38032 11.1238 7.68625 11.9969 7.60891C13.0505 7.51438 13.6623 7.11219 14.4358 6.92829C15.7936 6.60516 16.5 6.26313 16.5 5.77672C16.5 5.29032 15.7094 4.76438 14.3498 4.44125Z" fill="url(#paint9_radial)"/>
<path d="M11.0962 0.747657C10.6098 0.625625 9.82609 0.670313 9.33453 0.752813C8.10734 0.960782 8.28438 0.842188 7.13969 0.730469C6.68078 0.685782 6.05859 0.647969 5.61688 0.782032C3.90672 1.29766 3.70391 2.74828 2.62109 4.98781C2.64516 7.02797 14.6558 7.00906 14.6317 4.98781C13.5867 2.85141 12.8923 1.19625 11.0962 0.747657Z" fill="url(#paint10_radial)"/>
<path opacity="0.2" d="M6.67044 1.717C7.22044 2.09857 7.89419 2.27903 8.55247 2.20513C9.15919 2.1381 9.73841 1.91294 10.2953 1.64825C10.3898 1.60357 10.4861 1.70153 10.4483 1.80294C10.364 2.0281 9.50981 2.86169 8.482 2.86169C7.53153 2.86169 6.8956 2.4681 6.5656 1.89403C6.52091 1.81841 6.55528 1.63794 6.67044 1.717Z" fill="#EEEEEE"/>
<path d="M14.1023 3.88092C12.1138 5.01014 5.10984 5.01357 3.14016 3.87061C2.97344 4.2367 2.80328 4.61311 2.62109 4.98779C2.64516 7.02795 14.6558 7.00732 14.6317 4.98779C14.4547 4.62342 14.2794 4.25045 14.1023 3.88092Z" fill="#404042"/>
<path d="M14.3722 4.44641C14.2828 4.25734 14.1917 4.06828 14.1023 3.88094C14.0989 3.88266 14.0955 3.88438 14.0938 3.88609C13.3014 2.29625 12.5692 1.11719 11.0962 0.747657C10.6098 0.625625 9.82609 0.670313 9.33453 0.752813C8.10734 0.960782 8.28438 0.842188 7.13969 0.730469C6.68078 0.685782 6.05859 0.647969 5.61688 0.782032C4.00984 1.26672 3.73313 2.57813 2.80844 4.5925C2.75 4.60625 2.69328 4.62 2.64 4.63375C1.28219 4.95516 0.6875 5.29031 0.6875 5.77672C0.6875 6.26313 1.39391 6.48313 2.75344 6.80625C3.52688 6.99016 4.11984 7.42328 5.49312 7.58656C6.36281 7.69141 7.82547 7.38031 8.81719 7.38031C9.81062 7.38031 11.1238 7.68625 11.9969 7.60891C13.0505 7.51438 13.6623 7.11219 14.4358 6.92828C15.7936 6.60516 16.5 6.26313 16.5 5.77672C16.5 5.29375 15.718 4.77125 14.3722 4.44641V4.44641Z" stroke="#575757" stroke-width="0.820312" stroke-miterlimit="10" stroke-linecap="round" stroke-linejoin="round"/>
<g opacity="0.6">
<path opacity="0.6" d="M15.517 7.45591C16.7768 9.0406 16.519 11.354 14.9412 12.6225C13.3634 13.8909 11.062 13.6348 9.80213 12.0484C8.54229 10.462 8.8001 8.15028 10.3779 6.88185C11.9557 5.61341 14.2571 5.87122 15.517 7.45591Z" fill="url(#paint11_radial)"/>
</g>
<path d="M17.1635 14.6111L16.5602 13.8497L16.6066 13.8119C16.7201 13.7208 16.7373 13.5558 16.6479 13.444L16.5705 13.3478C16.4812 13.2344 16.3162 13.2172 16.2045 13.3065L16.158 13.3444L15.6235 12.6706C17.0862 11.1719 17.2409 8.77763 15.9054 7.09841C14.4616 5.28341 11.8268 4.98951 10.0204 6.44185C8.21227 7.8942 7.91664 10.5445 9.36039 12.3595C10.6838 14.0233 13.0076 14.4083 14.7779 13.3426L15.3176 14.0233L15.2093 14.1092C15.0959 14.2003 15.0787 14.3653 15.168 14.477L15.2454 14.5733C15.3348 14.6867 15.4998 14.7039 15.6115 14.6145L15.718 14.5286L16.3213 15.29L17.1635 14.6111V14.6111ZM9.97571 11.8473C8.80696 10.3778 9.04758 8.23279 10.5102 7.05716C11.9729 5.88154 14.1076 6.11873 15.2746 7.58826C16.4434 9.05779 16.2027 11.2028 14.7401 12.3784C13.2774 13.554 11.1445 13.3169 9.97571 11.8473V11.8473Z" stroke="#919191" stroke-width="0.793789" stroke-miterlimit="10"/>
<path d="M17.1634 14.6111L16.3212 15.2866L14.4615 12.9422L15.3037 12.265L17.1634 14.6111Z" fill="#C7C7C7"/>
<path d="M15.9054 7.0967C14.4616 5.2817 11.8268 4.9878 10.0204 6.44014C8.21227 7.89249 7.91664 10.5428 9.36039 12.3578C10.8041 14.1728 13.439 14.4667 15.2454 13.0144C17.0518 11.562 17.3491 8.9117 15.9054 7.0967ZM14.7401 12.3784C13.2774 13.554 11.1427 13.3169 9.97571 11.8473C8.80696 10.3778 9.04758 8.2328 10.5102 7.05717C11.9729 5.88155 14.1076 6.11874 15.2746 7.58827C16.4434 9.0578 16.2027 11.2028 14.7401 12.3784Z" fill="url(#paint12_radial)"/>
<path d="M18.6674 18.1311C18.6056 18.1311 18.5489 18.1036 18.511 18.0555L18.4406 17.9678C18.4208 17.9434 18.3946 17.9249 18.3649 17.9145C17.8201 17.7238 17.1721 17.203 16.6324 16.5241C16.1529 15.9191 15.8109 15.2574 15.6957 14.7074C15.6596 14.5372 15.5806 14.3705 15.4637 14.2244L15.4242 14.1745L16.2371 13.5214L16.2749 13.5695C16.3901 13.7156 16.5362 13.8308 16.6926 13.903C17.2014 14.1367 17.7668 14.618 18.2481 15.2213C18.7895 15.9019 19.1504 16.6513 19.2157 17.227C19.2192 17.258 19.2312 17.2872 19.2501 17.3113L19.3206 17.3989C19.3893 17.4866 19.3756 17.6138 19.2896 17.6842L19.1315 17.8114C19.1212 17.8183 19.1126 17.8269 19.1057 17.8372C19.0885 17.8595 19.0696 17.8785 19.049 17.8956C19.0284 17.9128 19.006 17.9266 18.9803 17.9386C18.9699 17.9438 18.9596 17.9506 18.9493 17.9575L18.7912 18.0847C18.7551 18.1156 18.7121 18.1311 18.6674 18.1311Z" fill="url(#paint13_radial)"/>
<path d="M16.2147 13.7534C16.3333 13.8806 16.4725 13.9838 16.6237 14.0542C17.1084 14.2777 17.6533 14.7417 18.119 15.3261C18.6415 15.9827 18.9904 16.7011 19.0523 17.2477C19.0592 17.3095 19.0833 17.368 19.1228 17.4178L19.1933 17.5055C19.2053 17.5209 19.2036 17.545 19.1881 17.557L19.03 17.6842C19.0111 17.6997 18.9939 17.7169 18.9784 17.7358C18.9681 17.7495 18.9578 17.7598 18.9458 17.7684C18.9354 17.777 18.9217 17.7856 18.9079 17.7925C18.8856 17.8028 18.8667 17.8166 18.8478 17.832L18.6897 17.9592C18.6828 17.9644 18.6759 17.9661 18.669 17.9661C18.6622 17.9661 18.6518 17.9644 18.6433 17.9541L18.5728 17.8664C18.5333 17.8166 18.4817 17.7805 18.4233 17.7598C17.9076 17.5794 17.2872 17.0792 16.7664 16.4227C16.3023 15.8383 15.9723 15.2006 15.8623 14.6747C15.8279 14.5114 15.7592 14.3516 15.6595 14.2055L16.2147 13.7534ZM16.2645 13.2877L15.192 14.1488L15.3347 14.3275C15.4309 14.4478 15.5014 14.5888 15.5323 14.74C15.6475 15.2934 15.9861 15.9775 16.5017 16.6255C17.0843 17.3577 17.7564 17.8767 18.3098 18.0692L18.3803 18.1569C18.4525 18.248 18.559 18.2944 18.6673 18.2944C18.7481 18.2944 18.8289 18.2686 18.8959 18.2136L19.054 18.0864C19.0901 18.0692 19.1228 18.0486 19.1537 18.0228C19.1847 17.9988 19.2122 17.9695 19.2362 17.9386L19.3943 17.8114C19.5525 17.6842 19.5783 17.4522 19.4528 17.2941L19.3823 17.2064C19.317 16.622 18.9612 15.8469 18.3803 15.1147C17.8647 14.465 17.2768 13.9838 16.7647 13.7483C16.6253 13.6817 16.503 13.5841 16.4072 13.463L16.2645 13.2877Z" fill="#EB6A1F"/>
<path d="M16.6065 13.8119L15.6096 14.6128C15.4962 14.7039 15.3329 14.685 15.2435 14.5716L15.1662 14.4753C15.0768 14.3619 15.094 14.1969 15.2074 14.1075L16.2043 13.3066C16.3177 13.2155 16.481 13.2344 16.5704 13.3478L16.6477 13.4441C16.7371 13.5558 16.7199 13.7208 16.6065 13.8119Z" fill="#ABABAB"/>
<path d="M20.6594 18.8513L19.6539 19.8395C18.7172 20.6388 17.6241 20.747 16.677 19.6127C14.618 17.1497 17.7891 15.345 18.755 15.8331C20.2005 16.5619 21.077 18.4938 20.6594 18.8513Z" fill="#FFD29C"/>
<path d="M18.2153 20.6215C18.1654 20.6215 18.1173 20.6198 18.0692 20.6147C17.5157 20.5683 17.0035 20.2675 16.5463 19.7192C15.6801 18.6828 15.5942 17.569 16.3109 16.6667C16.9692 15.8365 18.1946 15.357 18.8323 15.6784C20.044 16.2903 20.8398 17.6773 20.9257 18.4026C20.9653 18.7275 20.8673 18.8925 20.7762 18.9733L19.7742 19.9581C19.262 20.3981 18.7292 20.6215 18.2153 20.6215ZM18.3631 15.9225C17.8457 15.9225 17.0517 16.2834 16.5773 16.8815C16.2198 17.3319 15.7746 18.2703 16.8076 19.5026C17.2046 19.977 17.6378 20.2383 18.0967 20.2761C18.5659 20.3156 19.0626 20.1197 19.5438 19.7089L20.5407 18.7292L20.5493 18.7206C20.5785 18.6948 20.606 18.6072 20.5871 18.4456C20.5081 17.7804 19.7415 16.5223 18.6776 15.9844C18.5934 15.9431 18.4868 15.9225 18.3631 15.9225Z" fill="#E3B57C"/>
<path d="M19.2879 19.3188C19.3311 19.3762 19.3853 19.4246 19.4473 19.461C19.5092 19.4975 19.5778 19.5213 19.649 19.5312C19.7202 19.5411 19.7927 19.5369 19.8623 19.5187C19.9318 19.5005 19.9971 19.4688 20.0544 19.4253L20.6697 18.9578C20.9104 18.7739 20.9585 18.4302 20.7763 18.1878C20.5941 17.9455 20.2504 17.8991 20.0097 18.0813L19.3944 18.5488C19.2784 18.6369 19.202 18.7674 19.182 18.9118C19.162 19.0561 19.2001 19.2025 19.2879 19.3188Z" fill="#FFD29C"/>
<path d="M19.7261 19.6832C19.6951 19.6832 19.6625 19.6814 19.6298 19.6763C19.4459 19.6505 19.2826 19.556 19.1709 19.4064C19.0604 19.2591 19.0124 19.0741 19.0375 18.8916C19.0626 18.7091 19.1587 18.5439 19.305 18.4319L19.9203 17.9644C20.0681 17.8527 20.252 17.8046 20.4342 17.8286C20.6181 17.8544 20.7814 17.9507 20.8931 18.0985C21.1234 18.4044 21.0633 18.841 20.759 19.073L20.1437 19.5405C20.0217 19.635 19.8756 19.6832 19.7261 19.6832ZM19.4047 19.2311C19.47 19.3171 19.5628 19.3721 19.6694 19.3858C19.7759 19.4013 19.8808 19.3721 19.965 19.3085L20.5803 18.841C20.7573 18.7069 20.7917 18.4543 20.6576 18.2772C20.5923 18.1913 20.4995 18.1363 20.393 18.1225C20.2864 18.1088 20.1815 18.1363 20.0956 18.1999L19.4803 18.6674C19.3962 18.7326 19.3412 18.8283 19.327 18.9338C19.3129 19.0392 19.3408 19.146 19.4047 19.2311Z" fill="#E3B57C"/>
<path d="M18.8702 18.6226C18.9141 18.6803 18.969 18.7287 19.0317 18.765C19.0944 18.8014 19.1637 18.8251 19.2355 18.8347C19.3074 18.8443 19.3804 18.8396 19.4504 18.8209C19.5205 18.8022 19.5861 18.7699 19.6436 18.7258L20.4463 18.1087C20.6886 17.9231 20.7333 17.5759 20.5494 17.3336C20.5055 17.2759 20.4506 17.2275 20.3879 17.1912C20.3252 17.1548 20.2559 17.1311 20.1841 17.1215C20.1122 17.112 20.0392 17.1166 19.9692 17.1353C19.8992 17.154 19.8335 17.1863 19.776 17.2304L18.9733 17.8475C18.731 18.0314 18.6846 18.3786 18.8702 18.6226Z" fill="#FFD29C"/>
<path d="M19.3084 19.0094C19.2757 19.0094 19.2448 19.0077 19.2121 19.0025C19.1182 18.9902 19.0276 18.9594 18.9456 18.9119C18.8636 18.8644 18.7918 18.8012 18.7343 18.7258C18.6179 18.5734 18.5667 18.3812 18.5919 18.1911C18.617 18.001 18.7164 17.8287 18.8684 17.7117L19.671 17.0947C19.824 16.9778 20.013 16.9263 20.2055 16.9521C20.3963 16.9778 20.5665 17.0758 20.6834 17.2288C20.7997 17.3812 20.8509 17.5734 20.8258 17.7635C20.8007 17.9536 20.7012 18.1259 20.5493 18.2428L19.7466 18.8599C19.6195 18.9578 19.4665 19.0094 19.3084 19.0094ZM20.111 17.2855C20.0285 17.2855 19.9477 17.313 19.8807 17.3646L19.078 17.9816C18.9113 18.1105 18.8787 18.3511 19.0076 18.5178C19.0695 18.5986 19.1588 18.6502 19.2602 18.6639C19.3599 18.6777 19.4613 18.6502 19.5421 18.5883L20.3448 17.9713C20.5115 17.8424 20.5441 17.6017 20.4152 17.435C20.3534 17.3542 20.264 17.3027 20.1626 17.2889C20.1437 17.2872 20.1265 17.2855 20.111 17.2855Z" fill="#E3B57C"/>
<path d="M18.3579 18.0658C18.4504 18.1747 18.5824 18.2424 18.7249 18.254C18.8673 18.2656 19.0086 18.2202 19.1175 18.1277L20.0525 17.3285C20.2794 17.1342 20.3069 16.7939 20.1144 16.5671C19.9219 16.3402 19.5816 16.3127 19.3547 16.5052L18.4197 17.3044C18.3108 17.3973 18.2431 17.5296 18.2315 17.6723C18.2199 17.815 18.2654 17.9565 18.3579 18.0658Z" fill="#FFD29C"/>
<path d="M18.7687 18.4267C18.7498 18.4267 18.7291 18.4267 18.7102 18.425C18.5212 18.4095 18.3493 18.3219 18.2273 18.1775C18.1059 18.0336 18.0463 17.8475 18.0614 17.6599C18.0765 17.4722 18.1652 17.2981 18.308 17.1755L19.243 16.3763C19.3874 16.2525 19.5713 16.1924 19.7604 16.2095C19.9494 16.225 20.1213 16.3127 20.2434 16.457C20.3647 16.601 20.4243 16.787 20.4092 16.9747C20.3941 17.1624 20.3054 17.3365 20.1626 17.4591L19.2276 18.2583C19.0987 18.3683 18.9371 18.4267 18.7687 18.4267ZM19.7037 16.5464C19.616 16.5464 19.5335 16.5774 19.4665 16.6341L18.5315 17.4333C18.3768 17.5656 18.3579 17.7994 18.4885 17.9558C18.5521 18.0314 18.6415 18.0761 18.7395 18.0847C18.8374 18.0933 18.9319 18.0624 19.0076 17.997L19.9426 17.1978C20.0973 17.0655 20.1162 16.8317 19.9855 16.6753C19.9219 16.5997 19.8326 16.555 19.7346 16.5464C19.7243 16.5481 19.714 16.5464 19.7037 16.5464Z" fill="#E3B57C"/>
<path d="M17.6534 17.4058C17.702 17.4572 17.7602 17.4986 17.8248 17.5274C17.8894 17.5563 17.9591 17.5721 18.0298 17.5741C18.1005 17.576 18.1709 17.5639 18.237 17.5386C18.3031 17.5133 18.3635 17.4751 18.4148 17.4264L19.3051 16.5774C19.5217 16.3711 19.5303 16.0291 19.3257 15.8125C19.1212 15.596 18.7792 15.5874 18.5643 15.7919L17.674 16.641C17.5701 16.7398 17.5097 16.8758 17.5058 17.0191C17.5019 17.1625 17.555 17.3015 17.6534 17.4058Z" fill="#FFD29C"/>
<path d="M18.0452 17.7461H18.0263C17.8372 17.741 17.6602 17.6619 17.5296 17.5244C17.2614 17.2408 17.2718 16.7888 17.5553 16.5189L18.4457 15.6699C18.5832 15.5393 18.7653 15.4705 18.9527 15.4739C19.1418 15.4791 19.3188 15.5582 19.4494 15.6957C19.7175 15.9793 19.7072 16.4313 19.4236 16.7011L18.5333 17.5502C18.4016 17.6754 18.227 17.7456 18.0452 17.7461ZM18.9355 15.816C18.841 15.816 18.7516 15.8521 18.6828 15.9174L17.7925 16.7664C17.6447 16.9074 17.6378 17.1411 17.7788 17.2907C17.8458 17.3628 17.9369 17.4024 18.0349 17.4058C18.1328 17.4041 18.2274 17.3732 18.2978 17.3044L19.1882 16.4553C19.336 16.3144 19.3428 16.0807 19.2019 15.9311C19.1349 15.8589 19.0438 15.8194 18.9441 15.816H18.9355Z" fill="#E3B57C"/>
<path d="M18.0829 15.2092C17.9644 15.2831 17.5295 15.5203 17.2631 15.6956C17.1617 15.7626 16.9039 15.95 16.8197 16.0342C16.5481 16.3075 16.0273 17.502 16.0325 17.9025C16.0359 18.0984 16.0995 18.2772 16.2026 18.425C16.1975 18.3253 16.8747 20.118 17.8372 18.6553C18.2686 18.0709 17.5123 17.6069 17.502 17.2683C17.4951 17.0087 17.5003 16.6083 18.3167 16.1855C18.5453 16.0669 18.8323 15.7626 18.8048 15.522C18.7601 15.1061 18.4267 14.9926 18.0829 15.2092Z" fill="#FFD29C"/>
<path d="M18.688 14.9308C18.4989 14.8414 18.2583 14.8741 18.0297 15.0202C17.9902 15.046 17.9145 15.0889 17.8217 15.1439C17.6361 15.2522 17.3817 15.4 17.1995 15.5221C17.1067 15.5857 16.8283 15.7816 16.7234 15.8899C15.9723 16.6753 15.7867 17.4866 15.828 18.0074C15.8555 18.3477 16.2559 18.59 16.2336 18.4869C16.1116 17.9403 16.1287 17.5828 16.3814 16.9933C16.5619 16.5739 16.7286 16.3608 16.9623 16.1253C17.0345 16.0532 17.2769 15.8744 17.3817 15.8039C17.5536 15.6888 17.8028 15.5444 17.985 15.4378C18.083 15.3811 18.1637 15.333 18.205 15.3072C18.3322 15.2264 18.4525 15.2024 18.535 15.2402C18.6072 15.2746 18.7086 15.376 18.7206 15.5014C18.7327 15.6321 18.4955 15.9225 18.2858 16.0325C17.9902 16.1889 17.6567 16.3419 17.4797 16.6375C17.3456 16.861 17.2562 17.191 17.3577 17.4264C17.4573 17.6602 17.9489 18.0177 17.9523 18.5367C17.9541 18.7516 17.8097 19.1658 17.8097 19.1658C17.8097 19.1658 18.1792 18.9166 18.248 18.6433C18.3442 18.2583 18.1431 17.8321 17.9334 17.5364C17.8406 17.4041 17.6344 17.2133 17.6344 17.1463C17.6309 16.9297 17.5931 16.6478 18.3373 16.2542C18.5952 16.1185 19.0369 15.785 19.0042 15.4413C18.9802 15.1989 18.8684 15.0167 18.688 14.9308Z" fill="#E3B57C"/>
</g>
<defs>
<radialGradient id="paint0_radial" cx="0" cy="0" r="1" gradientUnits="userSpaceOnUse" gradientTransform="translate(12.3514 11.9795) scale(4.02136)">
<stop stop-color="#454140"/>
<stop offset="1" stop-color="#312D2D"/>
</radialGradient>
<radialGradient id="paint1_radial" cx="0" cy="0" r="1" gradientUnits="userSpaceOnUse" gradientTransform="translate(4.85386 11.9795) scale(4.02909)">
<stop stop-color="#454140"/>
<stop offset="1" stop-color="#312D2D"/>
</radialGradient>
<linearGradient id="paint2_linear" x1="8.59375" y1="16.6807" x2="8.59375" y2="23.3527" gradientUnits="userSpaceOnUse">
<stop offset="0.161" stop-color="#606060"/>
<stop offset="0.288" stop-color="#606060"/>
<stop offset="0.449" stop-color="#595959"/>
<stop offset="0.684" stop-color="#464646"/>
<stop offset="0.962" stop-color="#262626"/>
<stop offset="1" stop-color="#212121"/>
</linearGradient>
<linearGradient id="paint3_linear" x1="8.59368" y1="16.2331" x2="8.59368" y2="2.17939" gradientUnits="userSpaceOnUse">
<stop stop-color="#FFD29C"/>
<stop offset="0.024" stop-color="#FFD39E"/>
<stop offset="0.316" stop-color="#FCD8AF"/>
<stop offset="0.629" stop-color="#FADCBA"/>
<stop offset="1" stop-color="#F9DDBD"/>
</linearGradient>
<radialGradient id="paint4_radial" cx="0" cy="0" r="1" gradientUnits="userSpaceOnUse" gradientTransform="translate(5.9318 8.47911) scale(0.9625)">
<stop offset="0.09" stop-color="#454140"/>
<stop offset="1" stop-color="#454140"/>
</radialGradient>
<radialGradient id="paint5_radial" cx="0" cy="0" r="1" gradientUnits="userSpaceOnUse" gradientTransform="translate(11.4817 8.55577) scale(1.15431)">
<stop offset="0.09" stop-color="#454140"/>
<stop offset="1" stop-color="#454140"/>
</radialGradient>
<radialGradient id="paint6_radial" cx="0" cy="0" r="1" gradientUnits="userSpaceOnUse" gradientTransform="translate(8.64971 5.76127) scale(6.25161 5.40264)">
<stop stop-color="#454140"/>
<stop offset="1" stop-color="#312D2D"/>
</radialGradient>
<linearGradient id="paint7_linear" x1="5.959" y1="16.2965" x2="5.959" y2="23.4042" gradientUnits="userSpaceOnUse">
<stop offset="0.125" stop-color="#757575"/>
<stop offset="0.3" stop-color="#707070"/>
<stop offset="0.502" stop-color="#626262"/>
<stop offset="0.718" stop-color="#4B4B4B"/>
<stop offset="0.942" stop-color="#2B2B2B"/>
<stop offset="1" stop-color="#212121"/>
</linearGradient>
<linearGradient id="paint8_linear" x1="11.2195" y1="16.2919" x2="11.2195" y2="23.4042" gradientUnits="userSpaceOnUse">
<stop offset="0.125" stop-color="#757575"/>
<stop offset="0.3" stop-color="#707070"/>
<stop offset="0.502" stop-color="#626262"/>
<stop offset="0.718" stop-color="#4B4B4B"/>
<stop offset="0.942" stop-color="#2B2B2B"/>
<stop offset="1" stop-color="#212121"/>
</linearGradient>
<radialGradient id="paint9_radial" cx="0" cy="0" r="1" gradientUnits="userSpaceOnUse" gradientTransform="translate(8.59378 5.79916) scale(9.73263 7.98599)">
<stop offset="0.003" stop-color="#757575"/>
<stop offset="0.333" stop-color="#686868"/>
<stop offset="0.941" stop-color="#464646"/>
<stop offset="1" stop-color="#424242"/>
</radialGradient>
<radialGradient id="paint10_radial" cx="0" cy="0" r="1" gradientUnits="userSpaceOnUse" gradientTransform="translate(8.47862 1.15701) rotate(90) scale(5.16348 8.11958)">
<stop offset="0.003" stop-color="#757575"/>
<stop offset="0.333" stop-color="#686868"/>
<stop offset="0.941" stop-color="#464646"/>
<stop offset="1" stop-color="#424242"/>
</radialGradient>
<radialGradient id="paint11_radial" cx="0" cy="0" r="1" gradientUnits="userSpaceOnUse" gradientTransform="translate(10.5349 7.12803) rotate(6.367) scale(7.20294)">
<stop stop-color="#FAFAFA"/>
<stop offset="1" stop-color="#EEEEEE"/>
</radialGradient>
<radialGradient id="paint12_radial" cx="0" cy="0" r="1" gradientUnits="userSpaceOnUse" gradientTransform="translate(12.3855 5.5552) rotate(-1.341) scale(8.41569)">
<stop stop-color="#E0E0E0"/>
<stop offset="0.227" stop-color="#DBDBDB"/>
<stop offset="0.494" stop-color="#CDCDCD"/>
<stop offset="0.779" stop-color="#B5B5B5"/>
<stop offset="1" stop-color="#9E9E9E"/>
</radialGradient>
<radialGradient id="paint13_radial" cx="0" cy="0" r="1" gradientUnits="userSpaceOnUse" gradientTransform="translate(16.4213 13.6051) rotate(6.367) scale(4.25872)">
<stop stop-color="#FFA726"/>
<stop offset="0.04" stop-color="#FFA623"/>
<stop offset="0.517" stop-color="#FF9800"/>
<stop offset="1" stop-color="#FB8C00"/>
</radialGradient>
<clipPath id="clip0">
<rect width="22" height="22" fill="white"/>
</clipPath>
</defs>
</svg>
