<svg width="22" height="16" viewBox="0 0 22 16" fill="none" xmlns="http://www.w3.org/2000/svg">
<g clip-path="url(#clip0)">
<path d="M22 1.83398C21.1905 2.13499 20.3206 2.33842 19.4076 2.42995C20.3396 1.96153 21.0552 1.21978 21.3922 0.336C20.5062 0.776873 19.5369 1.0875 18.5261 1.25445C17.7027 0.518896 16.5297 0.0592041 15.2315 0.0592041C12.7388 0.0592041 10.7178 1.75385 10.7178 3.84397C10.7178 4.14066 10.7577 4.42949 10.8347 4.70657C7.08348 4.54868 3.7577 3.04191 1.53149 0.752021C1.14305 1.31102 0.920477 1.96124 0.920477 2.65478C0.920477 3.96792 1.71738 5.12634 2.92841 5.80511C2.21164 5.78628 1.51065 5.62394 0.883953 5.33165C0.883695 5.3475 0.883695 5.36336 0.883695 5.37928C0.883695 7.21308 2.43951 8.74284 4.50424 9.09055C3.83959 9.24212 3.14242 9.26431 2.46598 9.1554C3.0403 10.6591 4.70723 11.7533 6.68224 11.7839C5.13752 12.799 3.19129 13.4041 1.07671 13.4041C0.712336 13.4041 0.353117 13.3862 0 13.3512C1.99745 14.4251 4.36992 15.0517 6.91883 15.0517C15.221 15.0517 19.7608 9.2844 19.7608 4.28291C19.7608 4.11875 19.7565 3.95553 19.7478 3.79324C20.6314 3.25758 21.3941 2.59412 22 1.83398" fill="#55ACEE"/>
</g>
<defs>
<clipPath id="clip0">
<rect width="22" height="15.0612" fill="white"/>
</clipPath>
</defs>
</svg>
