<svg width="35" height="35" viewBox="0 0 35 35" fill="none" xmlns="http://www.w3.org/2000/svg">
<path d="M3.15657 16.4317L1.00756 16.9943C0.296553 17.1804 0.065362 18.6497 0.491104 20.2759C0.916846 21.9022 1.83833 23.0697 2.54934 22.8836L4.69835 22.321L3.15657 16.4317Z" fill="#0096D1"/>
<path d="M32.209 20.0558C32.0548 20.0558 31.8995 20.0067 31.7678 19.9054C31.4511 19.6614 31.392 19.2068 31.6359 18.89C33.2598 16.7812 33.7616 14.0062 32.9782 11.4667C32.1947 8.92732 30.2168 6.91728 27.6872 6.08993C27.3071 5.96565 27.0998 5.5568 27.2241 5.17672C27.3485 4.79664 27.7577 4.58951 28.1373 4.71365C31.1131 5.68695 33.44 8.05191 34.3619 11.0399C35.2836 14.0278 34.6935 17.2927 32.7832 19.7734C32.7156 19.8614 32.6286 19.9326 32.5291 19.9816C32.4295 20.0305 32.32 20.0559 32.209 20.0558ZM30.1394 19.0896C31.7022 17.0599 32.1851 14.3887 31.4309 11.9441C30.6767 9.49942 28.7729 7.56451 26.3382 6.76812C25.958 6.64398 25.5494 6.85118 25.425 7.23119C25.3008 7.61127 25.5081 8.02006 25.888 8.1444C27.8766 8.79484 29.4314 10.3748 30.0473 12.3709C30.6631 14.367 30.2686 16.5484 28.9921 18.2061C28.7482 18.5229 28.8073 18.9775 29.124 19.2215C29.2504 19.3191 29.4056 19.372 29.5652 19.3719C29.7821 19.3719 29.9968 19.2747 30.1394 19.0896ZM27.4718 17.8886C28.5658 16.4679 28.9037 14.598 28.3758 12.8866C27.8478 11.1752 26.5152 9.82064 24.8109 9.26324C24.4312 9.13917 24.0221 9.34623 23.8977 9.72631C23.7735 10.1064 23.9808 10.5152 24.3608 10.6395C25.6189 11.051 26.6027 12.0506 26.9922 13.3134C27.3818 14.5763 27.1322 15.9564 26.3245 17.0051C26.0806 17.3219 26.1396 17.7766 26.4564 18.0205C26.5828 18.1181 26.738 18.171 26.8976 18.1709C27.0086 18.171 27.1181 18.1456 27.2176 18.0967C27.3172 18.0477 27.4042 17.9765 27.4718 17.8886Z" fill="#597B91"/>
<path d="M24.2668 14.291C23.0856 9.77894 20.5289 6.53987 18.5564 7.05626C18.0189 7.19694 17.5805 7.60252 17.2506 8.20866C15.5128 10.5331 11.3662 12.6794 8.45435 13.9788C8.34224 13.9637 8.23218 13.968 8.12574 13.9959C7.93516 14.0458 7.77034 14.1643 7.63226 14.338C6.26835 14.9213 5.33203 15.26 5.33203 15.26L6.91585 21.3099L7.14602 22.1892C7.14602 22.1892 8.1498 22.0665 9.65337 21.9648C9.84929 22.0395 10.0414 22.0571 10.2235 22.0095C10.2997 21.9895 10.3714 21.9575 10.4394 21.9166C13.5406 21.7466 18.1053 21.734 20.8315 22.8236C21.516 23.3426 22.2047 23.5606 22.8339 23.3959C24.8065 22.8794 25.4481 18.8031 24.2668 14.291Z" fill="#132028"/>
<path d="M23.6383 14.4556C24.6116 18.1734 24.0831 21.5322 22.4577 21.9577C20.8324 22.3832 18.7258 19.7143 17.7525 15.9965C16.7792 12.2787 17.3077 8.91993 18.9331 8.49439C20.5584 8.06892 22.665 10.7378 23.6383 14.4556Z" fill="#626566"/>
<path d="M17.504 12.4997C17.4164 12.5226 17.3373 12.5691 17.2667 12.6362C17.285 13.6644 17.4425 14.8122 17.7525 15.9965C18.0625 17.1808 18.4878 18.2585 18.9756 19.1639C19.07 19.1877 19.1618 19.1894 19.2493 19.1665C19.9412 18.9854 20.1114 17.3461 19.6294 15.5051C19.1476 13.6641 18.1959 12.3186 17.504 12.4997Z" fill="#BCBCBC"/>
<path d="M11.936 27.7807C11.9158 27.5256 11.8734 27.2387 11.8224 26.9149C11.7687 26.5916 11.6987 26.2299 11.5861 25.8469C11.5276 25.6494 11.4615 25.4542 11.3879 25.2618C11.3096 25.0613 11.2227 24.8644 11.1274 24.6715C11.0286 24.4772 10.9216 24.2873 10.8065 24.1021C10.7789 24.0563 10.7426 24.0027 10.7105 23.9535L10.6201 23.8186L10.4679 23.5991C10.2962 23.3536 10.1305 23.0928 9.95451 22.8221C9.82278 22.6176 9.6875 22.4061 9.5408 22.1883L10.2238 22.0095C9.25636 22.2628 8.00251 20.6742 7.42316 18.4613C6.84382 16.2484 7.15847 14.2493 8.1259 13.996L6.04893 14.5397L3.12479 15.3052C2.15737 15.5585 1.84278 17.5577 2.42206 19.7705C3.0014 21.9834 4.25525 23.572 5.22267 23.3187L5.30792 23.2964C5.38201 23.2929 5.4558 23.2846 5.52879 23.2713L5.55934 23.2657L5.5968 23.2589C5.61123 23.2563 5.63317 23.2519 5.63454 23.2534C5.6409 23.2536 5.6478 23.253 5.65539 23.2525L5.69292 23.2492C5.72101 23.2467 5.75082 23.2456 5.7809 23.2453C5.84016 23.245 5.89581 23.2492 5.92397 23.26C5.95405 23.2731 5.95138 23.2735 5.97312 23.289C5.98468 23.2983 6.00395 23.3113 6.03601 23.3397C6.06835 23.3654 6.11312 23.4068 6.16672 23.4634C6.27534 23.5755 6.41862 23.7562 6.58022 23.9769C6.74176 24.1988 6.92202 24.4608 7.11999 24.74C7.32789 25.0359 7.54343 25.3263 7.76639 25.6111L7.81076 25.6662L7.83291 25.6938L7.83845 25.7007C7.85335 25.7207 7.82129 25.6774 7.82546 25.683L7.82792 25.6861L7.83762 25.6986L7.91535 25.7986L8.01529 25.9313C8.08296 26.0266 8.14679 26.1245 8.20663 26.2248C8.2645 26.3235 8.31868 26.4243 8.36905 26.527C8.4184 26.6316 8.46387 26.738 8.50536 26.8459C8.54673 26.9582 8.58546 27.0715 8.6215 27.1857C8.65771 27.3048 8.69121 27.4247 8.72199 27.5454C8.78611 27.7904 8.83417 28.0449 8.89795 28.2893C9.02359 28.7806 9.20905 29.2211 9.37817 29.5156C9.46157 29.6634 9.53923 29.777 9.59644 29.8527L9.66398 29.9384L9.68886 29.9671C9.83843 30.1394 10.0331 30.2666 10.251 30.3343C10.8925 30.5319 11.5726 30.1719 11.7701 29.5305L11.8064 29.4128L11.816 29.3815L11.8392 29.292C11.8577 29.2142 11.8805 29.1022 11.901 28.9613C11.9397 28.6793 11.9751 28.2887 11.936 27.7807Z" fill="#626566"/>
</svg>
