<svg width="22" height="22" viewBox="0 0 22 22" fill="none" xmlns="http://www.w3.org/2000/svg">
<path d="M18.6352 21.8106H3.36467C2.8521 21.8106 2.43655 21.395 2.43655 20.8824V1.08773C2.43655 0.575158 2.8521 0.159607 3.36467 0.159607H14.6666L19.5633 5.00386V20.8824C19.5634 21.395 19.1478 21.8106 18.6352 21.8106V21.8106Z" fill="#DCE2E2"/>
<path d="M12.5591 3.42571H4.57861C4.48853 3.42571 4.40215 3.38993 4.33846 3.32624C4.27476 3.26254 4.23898 3.17616 4.23898 3.08608C4.23898 2.99601 4.27476 2.90963 4.33846 2.84593C4.40215 2.78224 4.48853 2.74646 4.57861 2.74646H12.5591C12.6492 2.74647 12.7356 2.78225 12.7993 2.84595C12.8629 2.90965 12.8987 2.99603 12.8987 3.08611C12.8987 3.17618 12.8629 3.26256 12.7992 3.32625C12.7355 3.38994 12.6491 3.42572 12.5591 3.42571V3.42571ZM11.6742 5.42333C11.6742 5.33325 11.6384 5.24687 11.5747 5.18318C11.511 5.11948 11.4246 5.0837 11.3345 5.0837H4.57861C4.48853 5.0837 4.40215 5.11948 4.33846 5.18318C4.27476 5.24687 4.23898 5.33325 4.23898 5.42333C4.23898 5.5134 4.27476 5.59979 4.33846 5.66348C4.40215 5.72717 4.48853 5.76295 4.57861 5.76295H11.3345C11.4246 5.76295 11.511 5.72717 11.5747 5.66348C11.6384 5.59979 11.6742 5.5134 11.6742 5.42333V5.42333ZM16.9709 7.76057C16.9709 7.6705 16.9351 7.58411 16.8714 7.52042C16.8077 7.45673 16.7213 7.42094 16.6313 7.42094H4.57861C4.48853 7.42094 4.40215 7.45673 4.33846 7.52042C4.27476 7.58411 4.23898 7.6705 4.23898 7.76057C4.23898 7.85064 4.27476 7.93703 4.33846 8.00072C4.40215 8.06441 4.48853 8.1002 4.57861 8.1002H16.6313C16.7213 8.1002 16.8077 8.06441 16.8714 8.00072C16.9351 7.93703 16.9709 7.85064 16.9709 7.76057ZM16.2145 10.0978C16.2145 10.0077 16.1787 9.92131 16.115 9.85762C16.0513 9.79393 15.965 9.75814 15.8749 9.75814H4.57861C4.48853 9.75814 4.40215 9.79393 4.33846 9.85762C4.27476 9.92131 4.23898 10.0077 4.23898 10.0978C4.23898 10.1878 4.27476 10.2742 4.33846 10.3379C4.40215 10.4016 4.48853 10.4374 4.57861 10.4374H15.8749C15.9195 10.4374 15.9637 10.4286 16.0049 10.4115C16.0461 10.3945 16.0835 10.3695 16.1151 10.3379C16.1466 10.3064 16.1716 10.2689 16.1887 10.2277C16.2057 10.1865 16.2145 10.1424 16.2145 10.0978ZM11.6742 12.435C11.6742 12.3449 11.6384 12.2586 11.5747 12.1949C11.511 12.1312 11.4246 12.0954 11.3345 12.0954H4.57861C4.48853 12.0954 4.40215 12.1312 4.33846 12.1949C4.27476 12.2586 4.23898 12.3449 4.23898 12.435C4.23898 12.5251 4.27476 12.6115 4.33846 12.6752C4.40215 12.7389 4.48853 12.7746 4.57861 12.7746H11.3345C11.3791 12.7746 11.4233 12.7659 11.4645 12.7488C11.5057 12.7317 11.5432 12.7067 11.5747 12.6752C11.6062 12.6436 11.6313 12.6062 11.6483 12.565C11.6654 12.5238 11.6742 12.4796 11.6742 12.435V12.435ZM16.9709 14.7723C16.9709 14.6822 16.9351 14.5958 16.8714 14.5321C16.8077 14.4684 16.7213 14.4326 16.6313 14.4326H4.57861C4.48853 14.4326 4.40215 14.4684 4.33846 14.5321C4.27476 14.5958 4.23898 14.6822 4.23898 14.7723C4.23898 14.8623 4.27476 14.9487 4.33846 15.0124C4.40215 15.0761 4.48853 15.1119 4.57861 15.1119H16.6313C16.7213 15.1119 16.8077 15.0761 16.8714 15.0124C16.9351 14.9487 16.9709 14.8623 16.9709 14.7723ZM16.9709 17.1095C16.9709 17.0194 16.9351 16.933 16.8714 16.8693C16.8077 16.8057 16.7213 16.7699 16.6313 16.7699H4.57861C4.48853 16.7699 4.40215 16.8057 4.33846 16.8693C4.27476 16.933 4.23898 17.0194 4.23898 17.1095C4.23898 17.1996 4.27476 17.286 4.33846 17.3496C4.40215 17.4133 4.48853 17.4491 4.57861 17.4491H16.6313C16.7213 17.4491 16.8077 17.4133 16.8714 17.3496C16.9351 17.286 16.9709 17.1996 16.9709 17.1095ZM16.9709 19.4467C16.9709 19.3566 16.9351 19.2702 16.8714 19.2065C16.8077 19.1429 16.7213 19.1071 16.6313 19.1071H4.57861C4.48853 19.1071 4.40215 19.1429 4.33846 19.2065C4.27476 19.2702 4.23898 19.3566 4.23898 19.4467C4.23898 19.5368 4.27476 19.6232 4.33846 19.6868C4.40215 19.7505 4.48853 19.7863 4.57861 19.7863H16.6313C16.7213 19.7863 16.8077 19.7505 16.8714 19.6868C16.9351 19.6232 16.9709 19.5368 16.9709 19.4467V19.4467Z" fill="#96A9B2"/>
<path d="M14.6666 0.159607L19.5108 5.00386H15.6962C15.1275 5.00386 14.6666 4.54285 14.6666 3.9742V0.159607V0.159607Z" fill="#B9C5C6"/>
<path d="M19.5538 15.9799H16.8374C16.6592 15.9799 16.4872 15.9146 16.3539 15.7963L15.1773 14.7526C14.8505 14.4627 14.8505 13.9523 15.1773 13.6625L16.3539 12.6187C16.4872 12.5004 16.6592 12.4351 16.8374 12.4351H19.5538" fill="#B9C5C6"/>
<path d="M20.2218 15.321H16.0065C15.8283 15.321 15.6563 15.2414 15.523 15.0973L14.1845 13.6499C13.9357 13.3807 13.9357 12.9404 14.1845 12.6712L15.523 11.2238C15.6563 11.0796 15.8283 11.0001 16.0065 11.0001H20.2218C20.6242 11.0001 20.9504 11.3977 20.9504 11.8882V14.433C20.9504 14.9234 20.6242 15.321 20.2218 15.321V15.321Z" fill="#FF6E83"/>
</svg>
