<svg width="29" height="29" viewBox="0 0 29 29" fill="none" xmlns="http://www.w3.org/2000/svg">
<g clip-path="url(#clip0)">
<path d="M27.3995 29.0001C28.2833 29.0001 29 28.2835 29 27.3996V1.60055C29 0.716504 28.2833 0 27.3995 0H1.60055C0.716391 0 0 0.716504 0 1.60055V27.3996C0 28.2835 0.716391 29.0001 1.60055 29.0001H27.3995Z" fill="#395185"/>
<path d="M20.0094 29.0001V17.7697H23.7791L24.3435 13.3931H20.0094V10.5987C20.0094 9.33153 20.3614 8.46798 22.1785 8.46798L24.4962 8.46697V4.55253C24.0951 4.49918 22.7195 4.38 21.119 4.38C17.7774 4.38 15.4898 6.41963 15.4898 10.1654V13.3931H11.7106V17.7697H15.4898V29.0001H20.0094Z" fill="white"/>
</g>
<defs>
<clipPath id="clip0">
<rect width="29" height="29" fill="white"/>
</clipPath>
</defs>
</svg>
