<svg width="22" height="22" viewBox="0 0 22 22" fill="none" xmlns="http://www.w3.org/2000/svg">
<g clip-path="url(#clip0)">
<path d="M18.8719 13.6469L21.3813 16.2593L10.3469 21.7937C10.3469 21.7937 8.90313 22.5156 8.21563 21.3812C5.46563 16.9125 18.8719 13.6469 18.8719 13.6469Z" fill="#256382"/>
<path d="M10.0375 18.5281C10.0375 18.5281 7.94062 19.3188 8.31875 20.7969C8.73125 22.3438 10.4156 21.4156 10.4156 21.4156L20.9 16.2594C20.9 16.2594 20.3156 14.6094 21.3812 13.5094L10.0375 18.5281Z" fill="#D9E3E8"/>
<path d="M11.825 3.05939L21.8625 13.4063L10.0031 18.3219L2.40625 5.74064L11.825 3.05939Z" fill="#42ADE2"/>
<path d="M20.8657 14.6437L13.8531 17.6687L20.7282 14.3344L20.8657 14.6437Z" fill="#94989B"/>
<path d="M20.7625 15.5375L13.3032 18.8031L20.625 15.2281L20.7625 15.5375Z" fill="#94989B"/>
<path d="M20.8313 16.0531L11.3094 20.4187L20.6938 15.7437L20.8313 16.0531Z" fill="#94989B"/>
<path d="M8.18125 21.3469C7.0125 18.7688 10.0031 18.3219 10.0031 18.3219L2.40625 5.74064C2.40625 5.74064 0.6875 5.70627 0.6875 7.59689C0.6875 8.38752 1.03125 8.97189 1.03125 8.97189L8.18125 21.3469Z" fill="#428BC1"/>
<path d="M2.99064 11.0687L0.481262 13.6812L11.5156 19.2156C11.5156 19.2156 12.9594 19.9375 13.6469 18.8031C16.3969 14.3344 2.99064 11.0687 2.99064 11.0687Z" fill="#547725"/>
<path d="M11.7906 15.95C11.7906 15.95 13.8875 16.7407 13.5094 18.2188C13.0969 19.7657 11.4469 18.8375 11.4469 18.8375L0.962512 13.6813C0.962512 13.6813 1.54689 12.0313 0.481262 10.9313L11.7906 15.95Z" fill="#D9E3E8"/>
<path d="M10.0375 0.481262L0 10.8281L11.8594 15.7438L19.4562 3.16251L10.0375 0.481262Z" fill="#83BF4F"/>
<path d="M1.09999 11.7562L7.97499 15.0906L0.962494 12.0656L1.09999 11.7562Z" fill="#94989B"/>
<path d="M1.23752 12.65L8.52502 16.225L1.06564 12.9593L1.23752 12.65Z" fill="#94989B"/>
<path d="M1.16873 13.1656L10.5187 17.8406L0.996857 13.475L1.16873 13.1656Z" fill="#94989B"/>
<path d="M13.6812 18.7688C14.85 16.1906 11.8594 15.7438 11.8594 15.7438L19.4562 3.16252C19.4562 3.16252 21.175 3.12814 21.175 5.01877C21.175 5.80939 20.8312 6.39377 20.8312 6.39377L13.6812 18.7688Z" fill="#699635"/>
<path d="M19.4906 8.9375L21.5875 11.1375L12.2719 15.7781C12.2719 15.7781 11.0344 16.3625 10.45 15.4344C8.18125 11.6875 19.4906 8.9375 19.4906 8.9375Z" fill="#962C2C"/>
<path d="M12.0312 13.0625C12.0312 13.0625 10.2437 13.7156 10.5875 14.9875C10.9312 16.2937 12.3406 15.5031 12.3406 15.5031L21.175 11.1375C21.175 11.1375 20.6937 9.76248 21.5875 8.83435L12.0312 13.0625Z" fill="#D9E3E8"/>
<path d="M13.5438 0L22 8.73125L11.9969 12.8906L5.56876 2.26875L13.5438 0Z" fill="#ED4C5C"/>
<path d="M13.7844 1.99377L15.4344 3.81565L9.35 6.11877L7.90625 3.78127L13.7844 1.99377Z" fill="white"/>
<path d="M21.175 9.79686L15.2625 12.3062L21.0375 9.48749L21.175 9.79686Z" fill="#94989B"/>
<path d="M21.1063 10.5531L14.7812 13.2687L20.9688 10.2437L21.1063 10.5531Z" fill="#94989B"/>
<path d="M21.175 10.9656L13.1313 14.6437L21.0031 10.6562L21.175 10.9656Z" fill="#94989B"/>
<path d="M10.4844 15.4344C9.52189 13.2687 12.0313 12.8906 12.0313 12.8906L5.56876 2.26874C5.56876 2.26874 4.09064 2.23436 4.09064 3.81561C4.09064 4.46874 4.36564 4.98436 4.36564 4.98436L10.4844 15.4344Z" fill="#C94747"/>
</g>
<defs>
<clipPath id="clip0">
<rect width="22" height="22" fill="white"/>
</clipPath>
</defs>
</svg>
