<svg xmlns="http://www.w3.org/2000/svg" xmlns:xlink="http://www.w3.org/1999/xlink" viewBox="0 0 1260.55 1577.59"><defs><style>.cls-1{isolation:isolate;}.cls-2{fill:url(#linear-gradient);}.cls-3{fill:url(#linear-gradient-2);}.cls-4{fill:url(#linear-gradient-3);}.cls-5{fill:url(#linear-gradient-4);}.cls-6{fill:url(#linear-gradient-5);}.cls-7{fill:url(#_ÂÁ_Ï_ÌÌ_È_ËÂÌÚ_58);}.cls-8{fill:url(#linear-gradient-6);}.cls-9{fill:url(#linear-gradient-7);}.cls-10{fill:url(#_ÂÁ_Ï_ÌÌ_È_ËÂÌÚ_13);}.cls-11{fill:url(#linear-gradient-8);}.cls-12{fill:url(#_ÂÁ_Ï_ÌÌ_È_ËÂÌÚ_13-2);}.cls-13{fill:#25f2bd;}.cls-14{fill:url(#linear-gradient-9);}.cls-15{fill:url(#linear-gradient-10);}.cls-16{fill:url(#linear-gradient-11);}.cls-17{fill:url(#_ÂÁ_Ï_ÌÌ_È_ËÂÌÚ_58-2);}.cls-18{fill:url(#_ÂÁ_Ï_ÌÌ_È_ËÂÌÚ_58-3);}.cls-19{fill:url(#_ÂÁ_Ï_ÌÌ_È_ËÂÌÚ_58-4);}.cls-20{fill:url(#linear-gradient-12);}.cls-21{fill:#38054a;opacity:0.13;}.cls-22{fill:url(#_ÂÁ_Ï_ÌÌ_È_ËÂÌÚ_13-3);}.cls-23{fill:url(#linear-gradient-13);}.cls-24{fill:url(#linear-gradient-14);}.cls-25{fill:url(#linear-gradient-15);}.cls-26{fill:url(#_ÂÁ_Ï_ÌÌ_È_ËÂÌÚ_58-5);}.cls-27{fill:url(#linear-gradient-16);}.cls-28{fill:url(#_ÂÁ_Ï_ÌÌ_È_ËÂÌÚ_57);}.cls-29{fill:url(#linear-gradient-17);}.cls-30{fill:url(#linear-gradient-18);}.cls-31{fill:url(#_ÂÁ_Ï_ÌÌ_È_ËÂÌÚ_58-6);}.cls-32{opacity:0.32;mix-blend-mode:darken;}.cls-33{fill:#670a95;}.cls-34{fill:url(#_ÂÁ_Ï_ÌÌ_È_ËÂÌÚ_15);}.cls-35{fill:url(#_ÂÁ_Ï_ÌÌ_È_ËÂÌÚ_12);}.cls-36{fill:#825de3;}.cls-37{fill:url(#linear-gradient-19);}.cls-38{fill:url(#linear-gradient-20);}.cls-39{fill:#fff;}.cls-40{fill:url(#linear-gradient-21);}.cls-41{fill:url(#linear-gradient-23);}.cls-42{fill:#7c00c1;}.cls-43{fill:url(#_ÂÁ_Ï_ÌÌ_È_ËÂÌÚ_58-7);}.cls-44{fill:url(#_ÂÁ_Ï_ÌÌ_È_ËÂÌÚ_58-8);}.cls-45,.cls-46{opacity:0.21;}.cls-45{fill:url(#linear-gradient-24);}.cls-46{fill:url(#linear-gradient-25);}.cls-47{fill:url(#linear-gradient-26);}.cls-48{fill:url(#_ÂÁ_Ï_ÌÌ_È_ËÂÌÚ_4);}.cls-49{fill:#a1d0ff;}.cls-50{fill:url(#linear-gradient-27);}.cls-51{fill:#faca20;}.cls-52{fill:url(#linear-gradient-29);}.cls-53{fill:url(#linear-gradient-30);}</style><linearGradient id="linear-gradient" x1="652.28" y1="303.15" x2="683.69" y2="303.15" gradientTransform="translate(601.45 -203.21) rotate(45) scale(1 0.58)" gradientUnits="userSpaceOnUse"><stop offset="0" stop-color="#5ab5e5"/><stop offset="0.48" stop-color="#6f96e4"/><stop offset="1" stop-color="#8269dd"/></linearGradient><linearGradient id="linear-gradient-2" x1="48.67" y1="803.9" x2="1224.17" y2="803.9" gradientUnits="userSpaceOnUse"><stop offset="0" stop-color="#64008c"/><stop offset="0.99" stop-color="#826ae9"/></linearGradient><linearGradient id="linear-gradient-3" x1="1041.03" y1="2797.78" x2="1111.9" y2="2797.78" gradientTransform="translate(1807.31 -1275.55) rotate(45)" xlink:href="#linear-gradient"/><linearGradient id="linear-gradient-4" x1="1434.11" y1="2029.82" x2="1487.27" y2="2029.82" gradientTransform="translate(1391.24 -2033.93) rotate(45)" gradientUnits="userSpaceOnUse"><stop offset="0.01" stop-color="#826ae9"/><stop offset="1" stop-color="#8500ba"/></linearGradient><linearGradient id="linear-gradient-5" x1="1054.45" y1="2636.13" x2="1085.86" y2="2636.13" gradientTransform="translate(1795.66 -1183.25) rotate(45)" gradientUnits="userSpaceOnUse"><stop offset="0.01" stop-color="#826ae9"/><stop offset="1" stop-color="#64008c"/></linearGradient><linearGradient id="_ÂÁ_Ï_ÌÌ_È_ËÂÌÚ_58" x1="770.38" y1="1123.91" x2="1205.11" y2="1123.91" gradientTransform="translate(875.16 -322.19) rotate(45)" gradientUnits="userSpaceOnUse"><stop offset="0" stop-color="#6e98e4"/><stop offset="0.45" stop-color="#5ab5e5"/><stop offset="1" stop-color="#fff"/></linearGradient><linearGradient id="linear-gradient-6" x1="1432.49" y1="591.46" x2="1594.25" y2="393.83" gradientTransform="matrix(-0.69, -0.72, 0.72, -0.69, 1166.61, 2767.4)" xlink:href="#linear-gradient"/><linearGradient id="linear-gradient-7" x1="115.33" y1="469.35" x2="216.08" y2="459.3" gradientTransform="matrix(0.03, -1, 1, 0.03, -6.82, 1378.13)" xlink:href="#linear-gradient-5"/><linearGradient id="_ÂÁ_Ï_ÌÌ_È_ËÂÌÚ_13" x1="60.35" y1="617.38" x2="555.84" y2="567.94" gradientTransform="matrix(0.03, -1, 1, 0.03, -6.82, 1378.13)" gradientUnits="userSpaceOnUse"><stop offset="0" stop-color="#8269dd"/><stop offset="0.52" stop-color="#6f96e4"/><stop offset="1" stop-color="#5ab5e5"/></linearGradient><linearGradient id="linear-gradient-8" x1="399.19" y1="1000.24" x2="1505.87" y2="1000.24" gradientTransform="translate(-146.88 141.55) rotate(-12.79)" xlink:href="#linear-gradient"/><linearGradient id="_ÂÁ_Ï_ÌÌ_È_ËÂÌÚ_13-2" x1="1973.84" y1="1231.04" x2="1833.55" y2="1090.75" gradientTransform="matrix(-0.69, -0.72, 0.72, -0.69, 1142.27, 3147.09)" xlink:href="#_ÂÁ_Ï_ÌÌ_È_ËÂÌÚ_13"/><linearGradient id="linear-gradient-9" x1="558.67" y1="289.28" x2="1772.1" y2="289.28" gradientTransform="matrix(-0.57, 0.86, -0.84, -0.55, 1330.38, 175.19)" xlink:href="#linear-gradient-4"/><linearGradient id="linear-gradient-10" x1="587.59" y1="321.75" x2="1574.69" y2="321.75" gradientTransform="matrix(-0.57, 0.86, -0.84, -0.55, 1330.38, 175.19)" xlink:href="#linear-gradient-4"/><linearGradient id="linear-gradient-11" x1="563.77" y1="304.14" x2="1828.61" y2="304.14" gradientTransform="matrix(-0.57, 0.86, -0.84, -0.55, 1330.38, 175.19)" xlink:href="#linear-gradient-4"/><linearGradient id="_ÂÁ_Ï_ÌÌ_È_ËÂÌÚ_58-2" x1="426.56" y1="385.72" x2="1901.71" y2="385.72" gradientTransform="matrix(0.98, -0.33, 0.32, 0.95, 325.99, 1263.54)" xlink:href="#_ÂÁ_Ï_ÌÌ_È_ËÂÌÚ_58"/><linearGradient id="_ÂÁ_Ï_ÌÌ_È_ËÂÌÚ_58-3" x1="461.71" y1="425.18" x2="1661.72" y2="425.18" gradientTransform="matrix(0.98, -0.33, 0.32, 0.95, 325.99, 1263.54)" xlink:href="#_ÂÁ_Ï_ÌÌ_È_ËÂÌÚ_58"/><linearGradient id="_ÂÁ_Ï_ÌÌ_È_ËÂÌÚ_58-4" x1="432.75" y1="403.79" x2="1970.42" y2="403.79" gradientTransform="matrix(0.98, -0.33, 0.32, 0.95, 325.99, 1263.54)" xlink:href="#_ÂÁ_Ï_ÌÌ_È_ËÂÌÚ_58"/><linearGradient id="linear-gradient-12" x1="445.54" y1="1081.78" x2="600.76" y2="1081.78" gradientTransform="translate(-146.88 141.55) rotate(-12.79)" xlink:href="#linear-gradient"/><linearGradient id="_ÂÁ_Ï_ÌÌ_È_ËÂÌÚ_13-3" x1="1863.55" y1="2261.15" x2="1863.55" y2="2113.07" gradientTransform="matrix(-0.66, 0.72, -0.38, -1.24, 3051.81, 2699.32)" xlink:href="#_ÂÁ_Ï_ÌÌ_È_ËÂÌÚ_13"/><linearGradient id="linear-gradient-13" x1="2183.62" y1="723.79" x2="2398.24" y2="723.79" gradientTransform="matrix(-0.7, -0.72, 0.72, -0.7, 2155.26, 2961.16)" xlink:href="#linear-gradient"/><linearGradient id="linear-gradient-14" x1="2058.23" y1="995.96" x2="2165.13" y2="995.96" gradientTransform="translate(1845.55 3192.33) rotate(-133.96)" xlink:href="#linear-gradient"/><linearGradient id="linear-gradient-15" x1="2258.9" y1="554.69" x2="2504.66" y2="755.86" gradientTransform="matrix(-0.43, -0.46, 0.43, -0.41, 2079.81, 2039.62)" xlink:href="#linear-gradient-5"/><linearGradient id="_ÂÁ_Ï_ÌÌ_È_ËÂÌÚ_58-5" x1="825.46" y1="1178.39" x2="912.84" y2="1178.39" gradientTransform="matrix(1.44, -0.44, -0.44, 1.44, -79.77, -108.39)" xlink:href="#_ÂÁ_Ï_ÌÌ_È_ËÂÌÚ_58"/><linearGradient id="linear-gradient-16" x1="1434.25" y1="1221.23" x2="1581.61" y2="1221.23" gradientTransform="matrix(1, 0, 0, 1, 0, 0)" xlink:href="#linear-gradient"/><linearGradient id="_ÂÁ_Ï_ÌÌ_È_ËÂÌÚ_57" x1="1014.72" y1="1484.34" x2="1111.18" y2="1484.34" gradientTransform="translate(816.03 -410.74) rotate(45)" gradientUnits="userSpaceOnUse"><stop offset="0" stop-color="#fff"/><stop offset="0.55" stop-color="#5ab5e5"/><stop offset="1" stop-color="#6e98e4"/></linearGradient><linearGradient id="linear-gradient-17" x1="701.63" y1="1880.79" x2="772.51" y2="1880.79" gradientTransform="translate(1807.31 -1275.55) rotate(45)" xlink:href="#linear-gradient"/><linearGradient id="linear-gradient-18" x1="1453.57" y1="1934.51" x2="1483.18" y2="1964.12" gradientTransform="translate(-832.59 758.72) rotate(-45)" xlink:href="#linear-gradient-4"/><linearGradient id="_ÂÁ_Ï_ÌÌ_È_ËÂÌÚ_58-6" x1="861.7" y1="1933.51" x2="893.11" y2="1933.51" gradientTransform="translate(601.45 -203.21) rotate(45) scale(1 0.58)" xlink:href="#_ÂÁ_Ï_ÌÌ_È_ËÂÌÚ_58"/><radialGradient id="_ÂÁ_Ï_ÌÌ_È_ËÂÌÚ_15" cx="1145.6" cy="-2388.45" r="160.08" gradientTransform="translate(4340.76 -727.01) rotate(-135) scale(1 1.52)" gradientUnits="userSpaceOnUse"><stop offset="0.01" stop-color="#fd39b8"/><stop offset="0.5" stop-color="#fd4a72"/><stop offset="1" stop-color="#fd5b2f"/></radialGradient><radialGradient id="_ÂÁ_Ï_ÌÌ_È_ËÂÌÚ_12" cx="1154.4" cy="-1930.1" r="106.19" gradientTransform="translate(3686.38 -72.63) rotate(-135) scale(1 1.39)" gradientUnits="userSpaceOnUse"><stop offset="0" stop-color="#fc4b4b"/><stop offset="1" stop-color="#faca20"/></radialGradient><linearGradient id="linear-gradient-19" x1="1190.3" y1="1295.29" x2="1100.24" y2="1009.14" gradientTransform="translate(870.74 -852.97) rotate(45)" gradientUnits="userSpaceOnUse"><stop offset="0" stop-color="#fd5b2f"/><stop offset="0.99" stop-color="#fd39b8"/></linearGradient><linearGradient id="linear-gradient-20" x1="596.22" y1="1206.33" x2="766.46" y2="1206.33" gradientTransform="matrix(-0.71, -0.71, -0.71, 0.71, 2488.37, 764.66)" xlink:href="#linear-gradient-19"/><linearGradient id="linear-gradient-21" x1="1105.06" y1="1417.62" x2="1105.06" y2="1168.94" gradientTransform="translate(1424.74 -859.97) rotate(45)" xlink:href="#linear-gradient-5"/><linearGradient id="linear-gradient-23" x1="337.91" y1="647.28" x2="577.55" y2="647.28" gradientTransform="matrix(-0.1, -1, -1, 0.1, 1849.37, 1177.71)" gradientUnits="userSpaceOnUse"><stop offset="0" stop-color="#8500ba"/><stop offset="0.99" stop-color="#826ae9"/></linearGradient><linearGradient id="_ÂÁ_Ï_ÌÌ_È_ËÂÌÚ_58-7" x1="-40.3" y1="1262.22" x2="199.37" y2="1262.22" gradientTransform="matrix(-0.67, -0.67, -0.83, 0.83, 2150.3, 232.9)" xlink:href="#_ÂÁ_Ï_ÌÌ_È_ËÂÌÚ_58"/><linearGradient id="_ÂÁ_Ï_ÌÌ_È_ËÂÌÚ_58-8" x1="-51.37" y1="1120.95" x2="275.08" y2="1120.95" gradientTransform="matrix(-0.67, -0.67, -0.83, 0.83, 2150.3, 232.9)" xlink:href="#_ÂÁ_Ï_ÌÌ_È_ËÂÌÚ_58"/><linearGradient id="linear-gradient-24" x1="1388.69" y1="715.14" x2="1388.69" y2="527.2" gradientTransform="translate(2034.61 -820.47) rotate(90)" xlink:href="#linear-gradient-5"/><linearGradient id="linear-gradient-25" x1="1396.52" y1="1002.27" x2="1396.52" y2="814.33" gradientTransform="translate(2124.25 -619.74) rotate(90)" xlink:href="#linear-gradient-5"/><linearGradient id="linear-gradient-26" x1="1389.34" y1="657.72" x2="1389.34" y2="386.25" gradientTransform="translate(870.74 -852.97) rotate(45)" xlink:href="#linear-gradient-4"/><radialGradient id="_ÂÁ_Ï_ÌÌ_È_ËÂÌÚ_4" cx="1259.98" cy="572" r="283.51" gradientTransform="translate(870.74 -852.97) rotate(45)" gradientUnits="userSpaceOnUse"><stop offset="0" stop-color="#faca20"/><stop offset="0.52" stop-color="#fc4b4b"/><stop offset="0.75" stop-color="#b60097"/><stop offset="0.99" stop-color="#6600d1"/></radialGradient><linearGradient id="linear-gradient-27" x1="1735.45" y1="1207.42" x2="1735.45" y2="1103.82" gradientTransform="translate(3242.14 1169.06) rotate(158.35)" xlink:href="#linear-gradient-5"/><linearGradient id="linear-gradient-29" x1="353.55" y1="150" x2="429.55" y2="150" gradientTransform="matrix(1, 0, 0, 1, 0, 0)" xlink:href="#linear-gradient-19"/><linearGradient id="linear-gradient-30" x1="464.55" y1="19" x2="502.55" y2="19" gradientTransform="matrix(1, 0, 0, 1, 0, 0)" xlink:href="#linear-gradient"/></defs><title>47 [Converted]</title><g class="cls-1"><g id="Layer_2" data-name="Layer 2"><path class="cls-2" d="M872.33,470.57h0a15.75,15.75,0,0,1,0-22.21l131-131a15.75,15.75,0,0,1,22.21,0h0a15.75,15.75,0,0,1,0,22.21l-131,131A15.77,15.77,0,0,1,872.33,470.57Z" transform="translate(-344.45 -125)"/><circle class="cls-3" cx="636.42" cy="803.9" r="587.75"/><path class="cls-4" d="M485.38,1568.72h0a35.53,35.53,0,0,1,0-50.12l159.46-159.46a35.54,35.54,0,0,1,50.12,0h0a35.54,35.54,0,0,1,0,50.11L535.49,1568.72A35.54,35.54,0,0,1,485.38,1568.72Z" transform="translate(-344.45 -125)"/><path class="cls-5" d="M871.77,551.25h0a26.65,26.65,0,0,1,0-37.59l196.48-196.48a26.65,26.65,0,0,1,37.59,0h0a26.66,26.66,0,0,1,0,37.58L909.35,551.24A26.65,26.65,0,0,1,871.77,551.25Z" transform="translate(-344.45 -125)"/><path class="cls-6" d="M556.81,1569h0a15.75,15.75,0,0,1,0-22.21l240.9-240.9a15.76,15.76,0,0,1,22.22,0h0a15.77,15.77,0,0,1,0,22.21L579,1569A15.75,15.75,0,0,1,556.81,1569Z" transform="translate(-344.45 -125)"/><path class="cls-7" d="M878.71,1376.25l78.93-78.93a26.66,26.66,0,0,0,0-37.59l-6.7-6.69a26.61,26.61,0,0,0-26.92-6.48,25.92,25.92,0,0,0-7.63,3.87,23.31,23.31,0,0,0-2.54,2.15,31.36,31.36,0,0,1-28.74-8.42l-2.24-2.24a31.41,31.41,0,0,1-4.56-38.41L1015.79,1066l131-131a31.3,31.3,0,0,0-35.52-50.43,30.35,30.35,0,0,0-8.76,6.14l-31.82,31.81a31.33,31.33,0,0,1-31.8-7.58l-2.24-2.25a31.37,31.37,0,0,1-6.85-33.84l5.3-5.29a26.2,26.2,0,0,0,6.64-11.2l81.13-81.13a31.3,31.3,0,0,0-35.52-50.43,30.49,30.49,0,0,0-8.76,6.14l-31.82,31.82a31.34,31.34,0,0,1-31.8-7.59l-2.24-2.24a31.38,31.38,0,0,1-6.85-33.84l5.3-5.3a26.13,26.13,0,0,0,4.23-5.53,26.68,26.68,0,0,0-4.23-32.06l-6.7-6.7a26.66,26.66,0,0,0-37.59,0l-131,131L707.19,935.25l-131,131a26.66,26.66,0,0,0,0,37.59l6.7,6.69a26.68,26.68,0,0,0,32.06,4.23,26.39,26.39,0,0,0,5.53-4.23l12.13-12.13a31.38,31.38,0,0,1,33.84,6.85l2.24,2.24a31.34,31.34,0,0,1,7.59,31.8l-7.34,7.34L612.58,1203l-131,131a31.13,31.13,0,0,0-6.14,8.76,31.24,31.24,0,0,0,38.9,42.77l33.3-33.3a33.13,33.13,0,0,1,49.4,44l-91.54,91.53a32.46,32.46,0,0,0-2.53,2.87L488.64,1505l-2.39,2.4a26.65,26.65,0,0,0,6.8,25.89l7.84,7.83a26.66,26.66,0,0,0,37.59,0l40.82-40.82a33.14,33.14,0,0,1,39.14,52.6l-12.39,12.38-93.49,93.49-2.39,2.39A26.64,26.64,0,0,0,517,1687l7.84,7.84a26.66,26.66,0,0,0,37.59,0l131-131,49.53-49.52,131-131A62.28,62.28,0,0,0,878.71,1376.25Z" transform="translate(-344.45 -125)"/><path class="cls-8" d="M591.59,1225.78h0a40.38,40.38,0,0,1-1.42,56.92L426.36,1438.51a40.37,40.37,0,0,1-56.92-1.42h0a40.38,40.38,0,0,1,1.42-56.92l163.81-155.81A40.38,40.38,0,0,1,591.59,1225.78Z" transform="translate(-344.45 -125)"/><path class="cls-9" d="M519.12,1169a38.84,38.84,0,0,1-3.57,3.94L403.91,1279.15a38.84,38.84,0,0,1,3.57-3.94l98.88-94.06Z" transform="translate(-344.45 -125)"/><path class="cls-10" d="M676.08,844.69,446.33,1063.23a68.71,68.71,0,0,0-10.24,12.44L397,1112.83a23.23,23.23,0,0,0,32,33.66l45.37-43.17a37.23,37.23,0,0,1,36,10.37l6.4,6.73a37.26,37.26,0,0,1,2.26,48.6l-12.76,12.13-98.88,94.06a38.84,38.84,0,0,0-3.57,3.94,37.27,37.27,0,0,0,2.25,48.6l6.4,6.73a37.25,37.25,0,0,0,52.54,1.31l61.09-58.11,214.9-204.41a37.25,37.25,0,0,0,1.31-52.54L736,1014a37,37,0,0,0-25.36-11.47l60.68-57.72a69.09,69.09,0,1,0-95.24-100.12Z" transform="translate(-344.45 -125)"/><path class="cls-11" d="M988.41,408.57c-277-6.92-507.16,212-514.09,489a502.78,502.78,0,0,0,14.16,131.9l-7.35,7a31.16,31.16,0,0,0,26.23,53.4c.23.61.44,1.22.68,1.83l2.62-2.49a30.91,30.91,0,0,0,13.49-7.52l83.51-79.44A57.23,57.23,0,0,1,673.42,1092L537,1221.82a49.16,49.16,0,0,0-1.74,69.32l5.29,5.56a49.17,49.17,0,0,0,69.32,1.73l79.1-75.24a57.25,57.25,0,0,1,75.1,84.86l-69.63,66.24a62.41,62.41,0,1,0,86,90.44l71.78-68.28a503.71,503.71,0,0,0,111.1,15.21c277,6.93,507.16-212,514.08-489,.27-10.49.17-20.9-.21-31.25L1538.59,833a31.21,31.21,0,0,0-43-45.22l-101.76,96.81A29.72,29.72,0,0,1,1348.35,849l117-111.28a62.37,62.37,0,0,0-69.28-101.76C1308.87,502.57,1159.75,412.86,988.41,408.57Z" transform="translate(-344.45 -125)"/><path class="cls-12" d="M765.56,878.14h0a24.84,24.84,0,0,1-.88,35L612.1,1058.3a24.85,24.85,0,0,1-35-.87h0a24.85,24.85,0,0,1,.88-35L730.53,877.26A24.85,24.85,0,0,1,765.56,878.14Z" transform="translate(-344.45 -125)"/><path class="cls-13" d="M1363.08,659.67h0a18.64,18.64,0,0,1-.66,26.27l-80.78,76.84a18.64,18.64,0,0,1-26.27-.66h0a18.63,18.63,0,0,1,.66-26.27L1336.81,659A18.63,18.63,0,0,1,1363.08,659.67Z" transform="translate(-344.45 -125)"/><path class="cls-14" d="M703.13,561.83c.27.44.54.88.8,1.32A12.58,12.58,0,0,0,721.67,567a314.55,314.55,0,0,1,56-29.81c9.08-3.67,15.24-15.37,12.5-23.88l-.09-.28c-2-6.11-7.92-8.66-14.44-6a354,354,0,0,0-68.93,37.65A12.76,12.76,0,0,0,703.13,561.83Z" transform="translate(-344.45 -125)"/><path class="cls-15" d="M682.4,597.41l2.18-1.94a12.6,12.6,0,0,0,2.82-15.38l-.38-.71a12.76,12.76,0,0,0-19.7-3.53l-2.3,2.08a12.74,12.74,0,0,0-1.18,17.69l.5.58A12.67,12.67,0,0,0,682.4,597.41Z" transform="translate(-344.45 -125)"/><path class="cls-16" d="M531.37,906.72l.29,0c8.9-.85,17.2-11.15,17-20.94-1.55-65.86,19.58-139.9,64-207.48a412.75,412.75,0,0,1,38.1-49.41,12.58,12.58,0,0,0,.15-16.57c-.06-.07-.12-.13-.17-.2a12.71,12.71,0,0,0-19.18-.17,458.77,458.77,0,0,0-40.12,52.4c-49.5,75.32-73,158-71.3,231.54C520.28,902.89,525,907.34,531.37,906.72Z" transform="translate(-344.45 -125)"/><path class="cls-17" d="M979.25,1481c.07-.62.15-1.25.23-1.87a15.29,15.29,0,0,0-14-17,382.1,382.1,0,0,1-75.93-13.7c-11.43-3.32-26.12,3.22-29.91,13.41l-.12.33c-2.72,7.32,1,14.23,9.25,16.61a430.54,430.54,0,0,0,94.15,15.92A15.52,15.52,0,0,0,979.25,1481Z" transform="translate(-344.45 -125)"/><path class="cls-18" d="M1025.81,1462.64l-3.54.2a15.31,15.31,0,0,0-14.26,12.57c-.06.32-.11.64-.17,1a15.5,15.5,0,0,0,16.16,18.19l3.76-.25a15.48,15.48,0,0,0,14.42-16l0-.93A15.4,15.4,0,0,0,1025.81,1462.64Z" transform="translate(-344.45 -125)"/><path class="cls-19" d="M1402.75,1280.89l-.3-.19c-9.14-5.88-24.81-2.29-32,7.23-48.07,64.06-124,118.86-217.22,150a500.94,500.94,0,0,1-73.55,18.51,15.3,15.3,0,0,0-12.61,15.72c0,.1,0,.21,0,.31a15.45,15.45,0,0,0,18.19,14.6,557.21,557.21,0,0,0,77.73-19.86c103.94-34.68,188.61-95.92,242.29-167.46C1410.46,1292.89,1409.32,1285.11,1402.75,1280.89Z" transform="translate(-344.45 -125)"/><path class="cls-20" d="M663.91,1022.51h0a36,36,0,0,1-1.27,50.8l-70.35,66.92a36.05,36.05,0,0,1-50.81-1.28h0a36,36,0,0,1,1.28-50.8l70.35-66.91A36,36,0,0,1,663.91,1022.51Z" transform="translate(-344.45 -125)"/><ellipse class="cls-21" cx="998.59" cy="1330.21" rx="113.78" ry="49.82" transform="translate(-419.11 -65.53) rotate(-3.29)"/><ellipse class="cls-22" cx="996.77" cy="1317.3" rx="103.32" ry="48.24" transform="translate(-418.38 -65.65) rotate(-3.29)"/><path class="cls-23" d="M1072,706.48l1.92,2a27.37,27.37,0,0,1,3.4,33.54L839.46,972a27.27,27.27,0,0,0,30.21,44.46,26.39,26.39,0,0,0,7.72-5.22L905.58,984A27.31,27.31,0,0,1,933.17,991l1.93,2a27.32,27.32,0,0,1,5.46,29.58l-4.69,4.54a22.85,22.85,0,0,0-3.76,4.75,23.24,23.24,0,0,0,3.21,28l5.73,5.93a23.22,23.22,0,0,0,32.75.56l230.1-222.45a23.23,23.23,0,0,0,.55-32.75l-5.74-5.94a23.21,23.21,0,0,0-32.75-.55l-10.75,10.39a27.32,27.32,0,0,1-29.38-6.46l-1.92-2a27.31,27.31,0,0,1-6.14-27.82L1290.27,612a26.57,26.57,0,0,0,5.48-7.54,27.25,27.25,0,0,0-36.81-36.36l1.4-1.36-1.69,1.51c-.36.19-.73.37-1.09.57a26.81,26.81,0,0,0-5.22,3.94l-15.14,14.64-3.16,2.82a27.35,27.35,0,0,1-29-6.64l-1.92-2a27.35,27.35,0,0,1-5-30.61l-110.57,106.9-42.78,41.36A27.32,27.32,0,0,1,1072,706.48Z" transform="translate(-344.45 -125)"/><path class="cls-24" d="M1114.44,906.39l1,1c4.42,4.59,1.72,14.65-5.86,24L871.38,1161c-5.4,5.2-9.25,11-11.1,16.25s-1.71,9.78.89,12.48c4.08,4.22,13,2.59,21.91-3.37a51.41,51.41,0,0,0,7.17-5.79l28.22-27.22c7.93-4.51,15.48-5.44,19.13-1.65l1,1c3.88,4,2.28,12.27-3.3,20.53l-4.71,4.54a44.77,44.77,0,0,0-4,4.45c-6.17,7.8-8.3,16.11-4.62,19.93l2.85,3c4.41,4.56,15.51,1.07,24.68-7.78L1179.8,975.18c9.18-8.85,13.07-19.82,8.67-24.38l-2.86-3c-3.68-3.82-12.06-2-20.07,3.89a45.17,45.17,0,0,0-4.61,3.88L1150.17,966c-8.46,5.28-16.76,6.58-20.64,2.56l-1-1c-3.66-3.79-2.45-11.31,2.34-19.06L1303.64,782a52,52,0,0,0,6-7c6.27-8.66,8.23-17.55,4.16-21.78-4.23-4.38-13.69-2.44-22.9,4.06l1.4-1.36-1.65,1.54c-.33.23-.65.45-1,.7a51.66,51.66,0,0,0-5,4.22L1269.61,777l-3.1,2.87c-8.33,5.09-16.45,6.29-20.28,2.32l-1-1c-4-4.17-2.18-12.85,3.89-21.4L1138.46,866.56l-42.84,41.3C1103.43,903.5,1110.84,902.66,1114.44,906.39Z" transform="translate(-344.45 -125)"/><path class="cls-25" d="M1421.85,591.25h0a26.44,26.44,0,0,1-.94,37.29l-156.61,149a26.44,26.44,0,0,1-37.29-.94h0a26.45,26.45,0,0,1,.93-37.29l156.62-148.95A26.45,26.45,0,0,1,1421.85,591.25Z" transform="translate(-344.45 -125)"/><path class="cls-26" d="M584.93,1274.46h0a18.51,18.51,0,0,1,0-26.1L694,1139.29a18.51,18.51,0,0,1,26.1,0h0a18.52,18.52,0,0,1,0,26.1L611,1274.46A18.52,18.52,0,0,1,584.93,1274.46Z" transform="translate(-344.45 -125)"/><path class="cls-27" d="M1581.61,1221.23a73.68,73.68,0,1,1-73.68-73.68A73.68,73.68,0,0,1,1581.61,1221.23Z" transform="translate(-344.45 -125)"/><path class="cls-28" d="M666.93,1285.56h0a17.15,17.15,0,0,0-24.24,0L571,1357.28a17.31,17.31,0,0,1-24.61-.26l-.14-.14-6.41-6.41a35.43,35.43,0,0,0-50,0l-63.77,63.78a35.42,35.42,0,0,0,0,50l6.41,6.41.13.14a17.31,17.31,0,0,1,.27,24.61l-19.71,19.72a17.13,17.13,0,0,0,0,24.24h0a17.13,17.13,0,0,0,24.23,0L666.93,1309.8A17.15,17.15,0,0,0,666.93,1285.56Z" transform="translate(-344.45 -125)"/><path class="cls-29" d="M893.79,680.32h0a35.54,35.54,0,0,1,0-50.11l159.47-159.47a35.54,35.54,0,0,1,50.11,0h0a35.53,35.53,0,0,1,0,50.12L943.91,680.32A35.55,35.55,0,0,1,893.79,680.32Z" transform="translate(-344.45 -125)"/><path class="cls-30" d="M1598.87,1084a20.94,20.94,0,1,1-29.62,0A20.95,20.95,0,0,1,1598.87,1084Z" transform="translate(-344.45 -125)"/><path class="cls-31" d="M349,1290h0a15.75,15.75,0,0,1,0-22.21l131-131a15.77,15.77,0,0,1,22.21,0h0a15.76,15.76,0,0,1,0,22.22l-131,131A15.75,15.75,0,0,1,349,1290Z" transform="translate(-344.45 -125)"/><g class="cls-32"><path class="cls-33" d="M1066.93,1373c-1-3.19-4.23-4.82-7.83-3.83s-7.2,1.86-10.81,2.62c-5.65,1.2-10.21,6.59-10.15,12.1v.18c0,4,3.42,6.57,7.54,5.75s8.35-1.78,12.53-2.88c6.17-1.61,10.45-8.31,8.77-13.78Z" transform="translate(-344.45 -125)"/><path class="cls-33" d="M1217.72,1102.7c-1.18.76-2.36,1.54-3.54,2.33-3.21,2.17-4.79,6.14-3.63,9.2,22.9,60.49,3.3,139.78-54.63,197.66a228.85,228.85,0,0,1-53.08,39.65c-4.54,2.45-7.11,7.69-5.8,11.93.13.44.27.88.4,1.32,1.17,3.77,5.53,5.13,9.58,3a252.43,252.43,0,0,0,60.17-44.61c64-64,85.62-151.58,60.23-218.37C1226.05,1101.19,1221.57,1100.23,1217.72,1102.7Z" transform="translate(-344.45 -125)"/><path class="cls-33" d="M1527.26,468.15C1550,439.66,1563,419.46,1563,419.46s-20.36,13.13-49,36a31.77,31.77,0,0,0-13-3.38c-44.32-1.89-135-2-233.79,19.71a17.27,17.27,0,0,0-13.68,16.84c0,1.16,0,2.33.07,3.5C1161,512.68,1061.32,552.43,985.94,627.8c-43.1,43.11-74.54,94.13-97.42,147.23q-2.57,6-5,11.93C783,756.83,674.28,801.35,630.93,895.32a197.16,197.16,0,0,0-15.59,50.81v0q-.45,2.75-.82,5.51c-1.43,10.49,11.83,16.11,18.69,8q1.63-1.91,3.31-3.78c50.74-56.36,134.69-77,211.07-47.77q-1.76,8.61-3.31,17.1c-4.3-2.45-7.48-2.19-7.93,1.19l-4.47,33.4c-.49,3.7,4.13,11.65,10.26,17.78l18.08,18.08-12.29,8.5c-6.74,4.65-10.4,11-9.56,15.81-27.93,16.4-56.62,38.53-83.62,65.54-86.34,86.33-81.5,231.16-81.5,231.16s144.82,4.84,231.16-81.5c26.9-26.9,49-55.47,65.34-83.31,4.85,1.3,11.59-2.39,16.45-9.43l8.49-12.3,15.17,15.17c6.13,6.13,14.08,10.75,17.77,10.26l33.41-4.47c2.16-.29,3-1.7,2.76-3.81l.27.27q6.3-1.14,12.68-2.39c20,71.35-1.6,146.49-53.63,193.33q-1.86,1.68-3.78,3.31c-8.07,6.86-2.46,20.12,8,18.69q2.76-.37,5.51-.82h0a197.09,197.09,0,0,0,50.8-15.59c88-40.57,132.58-138.36,113.24-233.19q8.89-3.47,17.75-7.23c53.74-22.93,105.4-54.6,149-98.17,78.46-78.46,118.31-183.2,138.09-279a23.58,23.58,0,0,0,11-15.34c20.6-96.86,20.47-185.16,18.61-228.72A31.69,31.69,0,0,0,1527.26,468.15Z" transform="translate(-344.45 -125)"/></g><path class="cls-34" d="M833.54,1017.71C913.28,938,1008.87,904.27,1047,942.44s4.47,133.76-75.27,213.5-213.5,75.27-213.5,75.27S753.8,1097.45,833.54,1017.71Z" transform="translate(-344.45 -125)"/><path class="cls-35" d="M889.65,1008.13c52.9-52.89,116.31-75.25,141.63-49.93s3,88.73-49.94,141.63-141.62,49.93-141.62,49.93S836.75,1061,889.65,1008.13Z" transform="translate(-344.45 -125)"/><path class="cls-36" d="M1029.29,1077.37,912.52,960.6c-4.27-4.27-.95-12.47,7.08-18l53.19-36.75c5.89-4.06,13.41-4.44,16.9-1L1085,1000.2c3.48,3.48,3.11,11-1,16.89l-36.75,53.19C1041.75,1078.32,1033.56,1081.64,1029.29,1077.37Z" transform="translate(-344.45 -125)"/><path class="cls-37" d="M922.37,855.09A9.82,9.82,0,0,0,935,850.15l36.78-79.72,4.11-8.92a9.74,9.74,0,0,0-5.11-13.13C873.11,708.9,761.88,749.52,719.2,842A181.73,181.73,0,0,0,704.8,889v0c-.28,1.69-.53,3.39-.76,5.09-1.32,9.69,10.93,14.87,17.26,7.42,1-1.18,2-2.34,3.06-3.49C771.9,845.18,851,826.37,922.37,855.09Z" transform="translate(-344.45 -125)"/><path class="cls-38" d="M1124.32,1053.34a9.81,9.81,0,0,1,4.93-12.63l79.72-36.78,8.92-4.11a9.75,9.75,0,0,1,13.14,5.11c39.47,97.67-1.15,208.91-93.67,251.58a181.73,181.73,0,0,1-46.92,14.4h0c-1.69.28-3.39.53-5.08.76-9.7,1.32-14.88-10.93-7.43-17.26,1.18-1,2.35-2,3.49-3.06C1134.22,1203.81,1153,1124.69,1124.32,1053.34Z" transform="translate(-344.45 -125)"/><path class="cls-39" d="M1395.91,943.81c-40.23,40.23-87.94,69.49-137.58,90.66a610.74,610.74,0,0,1-95.95,31.47q-7.17,1.74-14.29,3.32-14.6,3.18-28.87,5.76L915.86,871.66c1.81-10,3.82-20.18,6.11-30.4q1.17-5.32,2.48-10.67a613,613,0,0,1,32.65-99.65c21.13-49,50.16-96.16,90-136,174.83-174.83,491-142.12,491-142.12S1570.74,769,1395.91,943.81Z" transform="translate(-344.45 -125)"/><path class="cls-40" d="M1170.09,868q3.92,2.53,8,4.85a6.6,6.6,0,0,1,3,7.74.88.88,0,0,0,0,.15,8.32,8.32,0,0,1-12.13,4.66c-3.13-1.82-6.18-3.73-9.18-5.74a6.58,6.58,0,0,1-1.89-9l.09-.13A8.74,8.74,0,0,1,1170.09,868Z" transform="translate(-344.45 -125)"/><path class="cls-40" d="M1204.37,892.48a7.76,7.76,0,0,1,9.38-5.16,148.38,148.38,0,0,0,52.19,4.07c64-6.34,114.68-52.52,129.82-111.52a6.09,6.09,0,0,1,6.72-4.5c1.12.15,2.22.31,3.33.5a6.18,6.18,0,0,1,5,7.63c-16.65,65.22-72.59,116.28-143.34,123.28a163.67,163.67,0,0,1-59-4.86,6.49,6.49,0,0,1-4.49-8.22Z" transform="translate(-344.45 -125)"/><path class="cls-41" d="M1170.09,868q3.92,2.53,8,4.85a6.6,6.6,0,0,1,3,7.74.88.88,0,0,0,0,.15,8.32,8.32,0,0,1-12.13,4.66c-3.13-1.82-6.18-3.73-9.18-5.74a6.58,6.58,0,0,1-1.89-9l.09-.13A8.74,8.74,0,0,1,1170.09,868Z" transform="translate(-344.45 -125)"/><path class="cls-42" d="M1204.37,892.48a7.76,7.76,0,0,1,9.38-5.16,148.38,148.38,0,0,0,52.19,4.07c64-6.34,114.68-52.52,129.82-111.52a6.09,6.09,0,0,1,6.72-4.5c1.12.15,2.22.31,3.33.5a6.18,6.18,0,0,1,5,7.63c-16.65,65.22-72.59,116.28-143.34,123.28a163.67,163.67,0,0,1-59-4.86,6.49,6.49,0,0,1-4.49-8.22Z" transform="translate(-344.45 -125)"/><path class="cls-43" d="M1104.66,1282q5-1.05,10-2.42c3.32-.91,6.33.59,7.23,3.54l0,.15c1.56,5-2.39,11.23-8.09,12.73q-5.79,1.51-11.57,2.66c-3.81.75-6.93-1.6-7-5.32v-.16C1095.23,1288.13,1099.44,1283.15,1104.66,1282Z" transform="translate(-344.45 -125)"/><path class="cls-44" d="M1149.68,1274.4c-1.21-3.92,1.16-8.75,5.36-11a211.08,211.08,0,0,0,49-36.63c53.5-53.45,71.6-126.68,50.45-182.55-1.07-2.82.39-6.49,3.36-8.49,1.08-.73,2.17-1.45,3.26-2.15,3.56-2.29,7.69-1.4,9,1.94,23.45,61.68,3.48,142.61-55.62,201.67a233,233,0,0,1-55.57,41.2c-3.75,2-7.77.72-8.85-2.76C1149.93,1275.21,1149.8,1274.81,1149.68,1274.4Z" transform="translate(-344.45 -125)"/><path class="cls-42" d="M1146.57,1060.26a4,4,0,0,1-2,1.06,10.92,10.92,0,0,1-6.22-.91,35.51,35.51,0,0,1-11.41-7.93L941.59,867.13c-7.06-7.06-10.58-15.25-8.33-19a5.85,5.85,0,0,1,.55-.68c1.29-1.29,3.44-1.51,6.05-.85a16.83,16.83,0,0,1,2.16.7,35.54,35.54,0,0,1,11.42,7.93l185.35,185.35c4,4,6.93,8.46,8.2,12.18C1148.12,1056,1148.08,1058.75,1146.57,1060.26Z" transform="translate(-344.45 -125)"/><path class="cls-42" d="M922.67,874.77l189.75,189.75c6.93,6.94,8.66,13.14,4,13.76l-30.85,4.13c-3.41.46-10.76-3.81-16.42-9.48L914.26,918c-5.67-5.66-9.94-13-9.48-16.42l4.13-30.85C909.53,866.11,915.73,867.84,922.67,874.77Z" transform="translate(-344.45 -125)"/><ellipse class="cls-45" cx="1413.45" cy="568.2" rx="93.97" ry="143.56" transform="translate(-332.24 1040.88) rotate(-45)"/><ellipse class="cls-46" cx="1215.96" cy="776.77" rx="93.97" ry="122.68" transform="translate(-537.56 962.32) rotate(-45)"/><path class="cls-47" d="M1493.33,507.82c-53,53-105.26,86.69-105.26,86.69s33.68-52.26,86.69-105.27S1580,402.55,1580,402.55,1546.34,454.81,1493.33,507.82Z" transform="translate(-344.45 -125)"/><path class="cls-48" d="M1533.62,672a21.73,21.73,0,0,1-21.82,17.22,224.47,224.47,0,0,1-217.62-222.78,15.94,15.94,0,0,1,12.63-15.55c91.29-20,175-19.95,215.93-18.21a29.36,29.36,0,0,1,28.08,28.08C1552.53,501,1552.65,582.54,1533.62,672Z" transform="translate(-344.45 -125)"/><path class="cls-39" d="M1528.31,641.43c.36,2.7-1.44,4.75-4.41,4.93-31.05,1.87-66.34-6.8-98.93-26.56s-56.59-47-69.29-75.43c-1.22-2.71-.23-5.26,2.32-6.19l.12,0c3.55-1.29,8.59,1.13,10.28,4.91,11.38,25.42,32.9,49.84,62.14,67.57s60.85,25.51,88.65,23.85c4.13-.25,8.61,3.1,9.11,6.84C1528.3,641.35,1528.31,641.39,1528.31,641.43Z" transform="translate(-344.45 -125)"/><path class="cls-39" d="M1346.59,497.05l.65-.05a5.32,5.32,0,0,0,4.84-6,132.47,132.47,0,0,1-.6-26.83c.34-4.12-2.91-8.67-6.65-9.26l-.12,0c-2.68-.41-4.77,1.35-5,4.31a150.27,150.27,0,0,0,1.11,33.19A5.39,5.39,0,0,0,1346.59,497.05Z" transform="translate(-344.45 -125)"/><path class="cls-39" d="M1356.08,511.65c-.11-.4-.21-.8-.31-1.19a5.33,5.33,0,0,0-5.28-4h-.34a5.37,5.37,0,0,0-5.07,6.76l.34,1.27a5.38,5.38,0,0,0,6.46,3.8l.31-.07A5.36,5.36,0,0,0,1356.08,511.65Z" transform="translate(-344.45 -125)"/><circle class="cls-36" cx="906.38" cy="615.33" r="131.97"/><circle class="cls-49" cx="1247.41" cy="736.92" r="82.08" transform="translate(-500.17 972.89) rotate(-45)"/><path class="cls-50" d="M1210.59,683.63c-1.08.71-2.14,1.47-3.18,2.25a2.74,2.74,0,0,1-3.45-.13l0,0a3.48,3.48,0,0,1,.22-5.42q1.81-1.34,3.71-2.56a2.74,2.74,0,0,1,3.75.76l0,.06A3.65,3.65,0,0,1,1210.59,683.63Z" transform="translate(-344.45 -125)"/><path class="cls-50" d="M1195.56,692.69a3.24,3.24,0,0,1,.42,4.44,62.14,62.14,0,0,0,11,87.36,2.54,2.54,0,0,1,.61,3.31c-.24.4-.49.8-.74,1.19a2.58,2.58,0,0,1-3.75.65,68.58,68.58,0,0,1-11.88-96.94,2.7,2.7,0,0,1,3.88-.36Z" transform="translate(-344.45 -125)"/><path class="cls-39" d="M1210.59,683.63c-1.08.71-2.14,1.47-3.18,2.25a2.74,2.74,0,0,1-3.45-.13l0,0a3.48,3.48,0,0,1,.22-5.42q1.81-1.34,3.71-2.56a2.74,2.74,0,0,1,3.75.76l0,.06A3.65,3.65,0,0,1,1210.59,683.63Z" transform="translate(-344.45 -125)"/><path class="cls-39" d="M1195.56,692.69a3.24,3.24,0,0,1,.42,4.44,62.14,62.14,0,0,0,11,87.36,2.54,2.54,0,0,1,.61,3.31c-.24.4-.49.8-.74,1.19a2.58,2.58,0,0,1-3.75.65,68.58,68.58,0,0,1-11.88-96.94,2.7,2.7,0,0,1,3.88-.36Z" transform="translate(-344.45 -125)"/><circle class="cls-33" cx="1210.59" cy="1545.81" r="28.81" transform="translate(-1082.93 1183.77) rotate(-45)"/><circle class="cls-51" cx="1275.02" cy="1592.81" r="18.19" transform="translate(-912.56 2342.77) rotate(-76.72)"/><circle class="cls-52" cx="391.55" cy="150" r="38"/><circle class="cls-53" cx="483.55" cy="19" r="19"/></g></g></svg>